<?xml version="1.0" encoding="utf-8"?>
<!-- Generator: Adobe Illustrator 23.0.2, SVG Export Plug-In . SVG Version: 6.00 Build 0)  -->
<svg version="1.1" xmlns="http://www.w3.org/2000/svg" xmlns:xlink="http://www.w3.org/1999/xlink" x="0px" y="0px"
	 viewBox="0 0 1080 1080" style="enable-background:new 0 0 1080 1080;" xml:space="preserve">
<style type="text/css">
	.st0{fill:#04294F;}
	.st1{fill:#FF3A00;}
	.st2{fill:#FFB400;}
	.st3{fill:#00AEE0;}
	.st4{fill:none;}
	.st5{fill:#FFFFFF;}
</style>
<g id="page_not_found">
	<path class="st0" d="M690,949.9c-40.1,7.9-68.3,36.2-63,63.4c5.3,27.1,42.2,42.8,82.3,34.9s68.3-36.2,63-63.4
		S730.1,942.1,690,949.9z M675.3,987.2c-3,0-5.4-2.4-5.4-5.4s2.4-5.4,5.4-5.4s5.4,2.4,5.4,5.4l0,0
		C680.8,984.8,678.4,987.2,675.3,987.2C675.4,987.2,675.4,987.2,675.3,987.2L675.3,987.2z M702.3,1024.1c-5.4,0-9.8-4.4-9.8-9.8
		c0-5.4,4.4-9.8,9.8-9.8c5.4,0,9.8,4.4,9.8,9.8c0,0,0,0,0,0C712.1,1019.7,707.7,1024.1,702.3,1024.1L702.3,1024.1z"/>
	<path class="st0" d="M69.4,430.4c18.1,7.4,41.7-8.3,52.6-35.1c1.1-2.8,2.1-5.6,2.9-8.5c-22.1-7.1-42.1-19.4-58.5-35.9
		c-4.1,5.4-7.5,11.3-10,17.5C45.4,395.4,51.3,423,69.4,430.4z"/>
	<path class="st0" d="M985.5,548.4c-18.4-33.2-20.9-73-6.7-108.3c9.7-24.4,16-50,18.6-76.1C1015.4,184.6,861.2,33.4,682,55
		c-47.9,5.8-93.5,23.8-132.5,52.3c-28.8,20.9-67.2,23-98.1,5.3c-67.6-38.4-151.1-35.6-216,7.3c14.5,7.4,27.6,17.3,38.9,29.1
		c1.2,1.3,3,2,4.8,1.8l4.7-0.4c1.1-0.1,2.2,0.3,2.9,1.2c3.3,4,6.5,8.2,9.4,12.5c0.7,1,0.7,2.4,0.1,3.4l-1.6,2.9c-1,1.8-1,3.9,0,5.7
		c40.2,69.2,16.7,158-52.6,198.2c-5.7,3.3-11.7,6.3-17.9,8.8c-1.1,0.4-1.7,1.5-1.7,2.6l0.1,4.1c0,1.2-0.7,2.3-1.8,2.7
		c-9.3,3.3-18.8,5.8-28.6,7.2c-1.1,0.2-2.3-0.4-2.8-1.4l-2.1-3.9c-0.5-1-1.6-1.5-2.7-1.4c-10.9,1.2-21.9,1.1-32.8-0.2
		c-3.1,19.6-11.1,38.1-23.3,53.8c-58,74.7-86.6,173.4-68.4,278.7C85.2,870.1,199.1,984,343.8,1009c95.1,16.4,184.7-5.3,256.2-52.4
		c38.8-25.6,85.5-36.6,131.7-31.1c14,1.7,28.1,2.2,42.2,1.6c131.5-5.7,237.6-111.6,243.4-243.1
		C1019.6,636.7,1008.6,589.8,985.5,548.4z M951.7,656.6c3,0,5.4,2.4,5.4,5.4s-2.4,5.4-5.4,5.4s-5.4-2.4-5.4-5.4c0,0,0,0,0,0
		C946.2,659,948.7,656.6,951.7,656.6z M870.8,788.5c5.4,0,9.8,4.4,9.8,9.8c0,5.4-4.4,9.8-9.8,9.8c-5.4,0-9.8-4.4-9.8-9.8
		c0,0,0,0,0,0C861,792.9,865.4,788.5,870.8,788.5z M850.9,828.8c3,0,5.4,2.4,5.4,5.4s-2.4,5.4-5.4,5.4s-5.4-2.4-5.4-5.4l0,0
		C845.5,831.2,847.9,828.8,850.9,828.8C850.9,828.8,850.9,828.8,850.9,828.8z M826.5,197.1c5.4,0,9.8,4.4,9.8,9.8s-4.4,9.8-9.8,9.8
		c-5.4,0-9.8-4.4-9.8-9.8C816.7,201.6,821.1,197.2,826.5,197.1C826.5,197.1,826.5,197.1,826.5,197.1z M811.3,742.9
		c3,0,5.4,2.4,5.4,5.4s-2.4,5.4-5.4,5.4s-5.4-2.4-5.4-5.4l0,0C805.9,745.3,808.3,742.9,811.3,742.9z M765.3,115.3
		c3,0,5.4,2.4,5.4,5.4c0,3-2.4,5.4-5.4,5.4c-3,0-5.4-2.4-5.4-5.4c0,0,0,0,0,0C759.9,117.7,762.3,115.3,765.3,115.3
		C765.3,115.3,765.3,115.3,765.3,115.3L765.3,115.3z M588,823.3c3,0,5.4,2.4,5.4,5.4s-2.4,5.4-5.4,5.4s-5.4-2.4-5.4-5.4c0,0,0,0,0,0
		C582.6,825.8,585,823.3,588,823.3z M572.8,187.3c5.4,0,9.8,4.4,9.8,9.8s-4.4,9.8-9.8,9.8s-9.8-4.4-9.8-9.8c0,0,0,0,0,0
		C562.9,191.7,567.3,187.3,572.8,187.3C572.7,187.3,572.8,187.3,572.8,187.3L572.8,187.3z M534.6,235.8c3,0,5.4,2.4,5.4,5.4
		c0,3-2.4,5.4-5.4,5.4s-5.4-2.4-5.4-5.4c0,0,0,0,0,0C529.2,238.3,531.6,235.8,534.6,235.8C534.6,235.8,534.6,235.8,534.6,235.8
		L534.6,235.8z M367.8,115.3c3,0,5.4,2.4,5.4,5.4c0,3-2.4,5.4-5.4,5.4c-3,0-5.4-2.4-5.4-5.4c0,0,0,0,0,0
		C362.3,117.7,364.8,115.3,367.8,115.3L367.8,115.3z M345.7,303.7c5.4,0,9.8,4.4,9.8,9.8s-4.4,9.8-9.8,9.8c-5.4,0-9.8-4.4-9.8-9.8
		c0,0,0,0,0,0C335.9,308.1,340.3,303.7,345.7,303.7z M254.6,863.7c5.4,0,9.8,4.4,9.8,9.8s-4.4,9.8-9.8,9.8c-5.4,0-9.8-4.4-9.8-9.8
		c0,0,0,0,0,0C244.8,868.1,249.2,863.7,254.6,863.7C254.6,863.7,254.6,863.7,254.6,863.7L254.6,863.7L254.6,863.7z M221.5,839.6
		c3,0,5.4,2.4,5.4,5.4s-2.4,5.4-5.4,5.4s-5.4-2.4-5.4-5.4l0,0C216.1,842.1,218.5,839.6,221.5,839.6
		C221.5,839.6,221.5,839.6,221.5,839.6L221.5,839.6z M170.8,581.5c3,0,5.4,2.4,5.4,5.4s-2.4,5.4-5.4,5.4s-5.4-2.4-5.4-5.4l0,0
		C165.4,584,167.8,581.5,170.8,581.5z M114.1,735c3,0,5.4,2.4,5.4,5.4c0,3-2.4,5.4-5.4,5.4s-5.4-2.4-5.4-5.4c0,0,0,0,0,0
		C108.7,737.4,111.1,735,114.1,735z"/>
	<path class="st0" d="M149.5,343.5c-4.4-16.9-6.6-34.2-6.6-51.7v0.1c0,17.5,2.2,34.9,6.6,51.8c2.6,9.9,3.8,20.1,3.8,30.4
		C153.3,363.7,152,353.4,149.5,343.5z"/>
	<path class="st1" d="M184.6,393c1.1-0.1,2.2,0.4,2.7,1.4l2.1,3.9c0.6,1,1.7,1.6,2.8,1.4c9.7-1.5,19.3-3.9,28.6-7.2
		c1.1-0.4,1.8-1.5,1.8-2.7l-0.1-4.1c0-1.1,0.6-2.2,1.7-2.6c74.1-30.4,109.6-115,79.2-189.1c-2.5-6.1-5.5-12.1-8.8-17.9
		c-1-1.8-1-3.9,0-5.7l1.6-2.9c0.6-1.1,0.5-2.4-0.1-3.4c-2.9-4.3-6-8.5-9.4-12.5c-0.7-0.8-1.8-1.3-2.9-1.2l-4.7,0.4
		c-1.8,0.2-3.6-0.5-4.8-1.8c-11.2-11.8-24.4-21.6-38.9-29.1l-0.1-0.1c-57.7,38.2-92.3,102.8-92.3,172v0.1c0,17.4,2.2,34.8,6.6,51.7
		c2.6,10,3.8,20.2,3.8,30.5c0,6.3-0.5,12.6-1.6,18.8l0,0C162.7,394.1,173.7,394.1,184.6,393L184.6,393z"/>
	
		<ellipse transform="matrix(0.3827 -0.9239 0.9239 0.3827 107.2565 642.7377)" class="st2" cx="534.6" cy="241.1" rx="5.4" ry="5.4"/>
	<ellipse transform="matrix(0.9733 -0.2297 0.2297 0.9733 -17.874 87.6785)" class="st2" cx="367.7" cy="120.6" rx="5.4" ry="5.4"/>
	
		<ellipse transform="matrix(0.9733 -0.2297 0.2297 0.9733 -7.2506 178.9942)" class="st2" cx="765.2" cy="120.6" rx="5.4" ry="5.4"/>
	<circle class="st2" cx="850.8" cy="834.1" r="5.4"/>
	<circle class="st2" cx="675.3" cy="981.8" r="5.4"/>
	<circle class="st2" cx="951.6" cy="661.9" r="5.4"/>
	<circle class="st2" cx="587.9" cy="828.7" r="5.4"/>
	
		<ellipse transform="matrix(0.7071 -0.7071 0.7071 0.7071 -532.5845 404.0331)" class="st2" cx="221.4" cy="844.9" rx="5.4" ry="5.4"/>
	<circle class="st2" cx="811.2" cy="748.3" r="5.4"/>
	
		<ellipse transform="matrix(0.7071 -0.7071 0.7071 0.7071 -490.0821 297.4885)" class="st2" cx="114.1" cy="740.3" rx="5.4" ry="5.4"/>
	
		<ellipse transform="matrix(0.7071 -0.7071 0.7071 0.7071 -364.9572 292.5857)" class="st2" cx="170.7" cy="586.8" rx="5.4" ry="5.4"/>
	<circle class="st2" cx="572.7" cy="197" r="9.8"/>
	<circle class="st2" cx="870.7" cy="798.2" r="9.8"/>
	<circle class="st2" cx="702.3" cy="1014.2" r="9.8"/>
	<circle class="st2" cx="826.4" cy="206.8" r="9.8"/>
	<circle class="st2" cx="254.5" cy="873.4" r="9.8"/>
	<circle class="st2" cx="345.6" cy="313.4" r="9.8"/>
	
		<ellipse transform="matrix(0.6444 -0.7647 0.7647 0.6444 -476.0619 991.6316)" class="st0" cx="828.2" cy="1007.7" rx="29.4" ry="29.4"/>
	<circle class="st1" cx="69.9" cy="257" r="22.4"/>
	<ellipse transform="matrix(0.2298 -0.9732 0.9732 0.2298 310.1948 550.684)" class="st0" cx="503" cy="79.4" rx="19.8" ry="19.8"/>
	<path class="st0" d="M219.2,387.4c-2.4,0.2-4.7,0.5-7,1c-2.3,0.4-4.6,1-6.9,1.5s-4.5,1.2-6.7,1.9c-2.2,0.7-4.4,1.5-6.6,2.5
		c-0.6,0.1-0.9,0.7-0.8,1.2s0.7,0.9,1.2,0.8c2.4-0.2,4.7-0.5,7-1c2.3-0.4,4.6-1,6.9-1.5s4.5-1.2,6.7-1.9c2.2-0.7,4.5-1.5,6.6-2.5
		c0.6-0.1,0.9-0.7,0.8-1.2S219.8,387.2,219.2,387.4L219.2,387.4z"/>
	<path class="st0" d="M283.9,158.3c0.6,1.2,1.3,2.3,2,3.4c0.7,1.1,1.5,2.1,2.3,3.1c0.8,1,1.8,2,2.8,2.8c0.5,0.4,1.1,0.3,1.5-0.1
		c0.2-0.3,0.3-0.6,0.2-1c-0.4-1.3-0.9-2.5-1.5-3.7c-0.6-1.2-1.3-2.3-2-3.4c-0.7-1.1-1.5-2.1-2.3-3.1c-0.8-1-1.8-2-2.8-2.8
		c-0.3-0.2-0.7-0.3-1-0.2c-0.6,0.2-0.9,0.8-0.7,1.3c0,0,0,0,0,0C282.7,155.9,283.2,157.1,283.9,158.3z"/>
	
		<ellipse transform="matrix(7.460101e-02 -0.9972 0.9972 7.460101e-02 29.6995 481.5823)" class="st0" cx="274.3" cy="224.8" rx="13.8" ry="7.4"/>
	
		<ellipse transform="matrix(0.9926 -0.1217 0.1217 0.9926 -30.7548 23.8474)" class="st0" cx="179.9" cy="263.7" rx="7.2" ry="11.5"/>
	<ellipse transform="matrix(0.3122 -0.95 0.95 0.3122 -64.3999 461.3532)" class="st0" cx="286.4" cy="275.2" rx="7.6" ry="4.1"/>
	<ellipse transform="matrix(0.9627 -0.2706 0.2706 0.9627 -85.4145 64.4098)" class="st0" cx="190.9" cy="342" rx="7.6" ry="4.1"/>
	<path class="st0" d="M230.3,180.3c1.5-0.9,1.4-3.8-0.2-6.6s-4.1-4.4-5.6-3.5s-1.4,3.9,0.2,6.7S228.8,181.2,230.3,180.3z"/>
	<path class="st0" d="M266.4,206.9c0.8,0.6,1.8,1.1,2.7,1.4c1,0.4,2,0.6,3,0.7c1,0.1,2.1,0.1,3.1-0.2c0.3-0.1,0.5-0.3,0.6-0.5
		c0.3-0.5,0.1-1.2-0.4-1.5h-0.1c-1.6-0.9-3.2-1.6-4.9-2.2c-1.6-0.6-3.3-1.1-4.9-1.5h-0.2c-0.3-0.1-0.5,0-0.8,0.1
		c-0.5,0.3-0.7,0.9-0.5,1.4C264.7,205.5,265.5,206.3,266.4,206.9z"/>
	<path class="st0" d="M263.8,245.7L263.8,245.7c1.9-0.2,3.6-0.5,5.4-1c1.7-0.4,3.3-0.9,5-1.5l0.2-0.1c0.6-0.2,0.8-0.8,0.6-1.4
		c-0.1-0.2-0.3-0.5-0.5-0.6c-1-0.5-2.1-0.7-3.2-0.7c-1,0-2.1,0.1-3,0.4c-1,0.3-1.9,0.6-2.8,1.1c-0.9,0.5-1.8,1.2-2.5,1.9
		c-0.4,0.5-0.3,1.2,0.1,1.5C263.2,245.6,263.5,245.7,263.8,245.7L263.8,245.7z"/>
	
		<ellipse transform="matrix(0.7646 -0.6445 0.6445 0.7646 -171.6808 235.0124)" class="st0" cx="235.9" cy="352.5" rx="11.5" ry="6.2"/>
	<path class="st0" d="M242.4,339.9c0.4,0.8,0.8,1.5,1.4,2.2c0.6,0.7,1.3,1.3,2.1,1.7c0.2,0.1,0.4,0.1,0.7,0.1c0.6-0.1,1-0.7,0.9-1.3
		c0,0,0,0,0,0v-0.1c-0.3-1.5-0.7-2.9-1.4-4.2c-0.3-0.7-0.6-1.3-1-1.9c-0.3-0.6-0.7-1.2-1.1-1.8l-0.1-0.2c-0.1-0.2-0.3-0.3-0.5-0.4
		c-0.6-0.2-1.2,0.1-1.4,0.6c-0.3,0.9-0.4,1.9-0.2,2.8C241.8,338.2,242,339.1,242.4,339.9z"/>
	<path class="st0" d="M224.8,359.6c-0.6-0.6-1.3-1.2-2-1.6c-0.7-0.4-1.5-0.8-2.4-1c-0.9-0.3-1.8-0.3-2.7-0.2c-0.6,0.1-1,0.7-0.9,1.3
		c0,0.2,0.1,0.4,0.3,0.6l0.1,0.1c1.1,1.1,2.2,2,3.5,2.7c0.6,0.4,1.2,0.7,1.9,1c0.6,0.3,1.3,0.6,2,0.9l0.2,0.1c0.2,0.1,0.4,0.1,0.6,0
		c0.6-0.1,0.9-0.7,0.8-1.3c0,0,0,0,0,0C226,361.1,225.5,360.3,224.8,359.6z"/>
	<path class="st1" d="M126,355.8c-2.5-10.6-8.4-18.8-17.1-22.4c-13.7-5.6-30.4,2-42.5,17.6c16.3,16.4,36.4,28.7,58.5,35.8
		c1.6-5.6,2.5-11.5,2.6-17.3C128.1,363.5,126,355.8,126,355.8z"/>
	<path class="st0" d="M111.7,361.8c-0.3,4,4.6,7.5,10.9,8c1.6,0.1,3.2,0,4.8-0.3c0.5-4.6,0-9.3-1.4-13.7c-0.8-0.2-1.5-0.3-2.3-0.3
		C117.4,355,112,357.9,111.7,361.8z"/>
	<path class="st3" d="M930.7,238.9c-0.3-0.6-1.1-0.8-1.7-0.4c-9,5.5-17.6,11.5-25.8,18c-4.6,3.6-9,7.2-13.4,11c1-4,1.9-8.2,2.7-12.5
		V255c0.1-0.7-0.3-1.3-1-1.5c-0.3-0.1-0.6,0-0.9,0.1c-7,3.9-13.5,8.6-19.3,14c-5.8,5.3-11.2,11-16,17.2c-4.9,6.2-9.2,12.9-12.8,19.9
		c-1.8,3.6-3.4,7.3-4.8,11.1c-0.7,1.9-1.3,3.9-1.8,5.9c-0.5,2-1,4-1.3,6.1c-0.9,5.6,1.4,12.3,4.4,15.7c3.8,3.9,9.1,6.1,14.5,6.1
		c7.4-0.3,14.7-2.1,21.4-5.5c6.1-3.1,11.7-7,16.8-11.6c4.8-4.5,9.1-9.5,12.7-15c3.7-5.5,6.6-11.6,8.5-18c0-0.2,0-0.4,0-0.6
		c-0.2-0.7-0.9-1.2-1.6-1c0,0,0,0,0,0h-0.1c-4.8,1.1-9.2,2.2-13.5,3.5c1.3-2,2.7-4.1,4-6.2c5.4-8.6,10.6-17.5,15.5-26.6
		c5-9.2,9.5-18.8,13.3-28.6C930.9,239.7,930.9,239.3,930.7,238.9z"/>
	<path class="st3" d="M936.5,256.2c-0.1-0.6-0.1-1.3,0-1.9c0.1-0.5,0.4-1,0.7-1.4c0.3-0.4,0.7-0.7,1.2-0.9c0.6-0.3,1.2-0.4,1.8-0.4
		c1.1,0,2.1,0.8,2.3,1.9c0.2,0.6,0.2,1.3,0,1.9c-0.1,0.5-0.4,1-0.7,1.3c-0.3,0.4-0.7,0.7-1.2,0.9c-0.6,0.3-1.2,0.4-1.8,0.4
		C937.8,258.2,936.8,257.4,936.5,256.2z"/>
	<path class="st3" d="M884.5,243.3c-0.1-0.6-0.1-1.3,0-1.9c0.1-0.5,0.4-1,0.7-1.4c0.3-0.4,0.7-0.8,1.2-1c0.6-0.3,1.2-0.4,1.8-0.4
		c1.1,0,2.1,0.8,2.4,1.9c0.2,0.6,0.2,1.3,0,1.9c-0.1,0.5-0.4,1-0.7,1.4c-0.3,0.4-0.7,0.8-1.2,1c-0.6,0.3-1.2,0.4-1.8,0.4
		C885.7,245.2,884.7,244.4,884.5,243.3z"/>
	<path class="st3" d="M931.8,216.1c-0.1-0.6-0.1-1.3,0-1.9c0.1-0.5,0.4-1,0.7-1.4c0.3-0.4,0.7-0.8,1.2-1c0.6-0.3,1.2-0.4,1.8-0.4
		c1.1,0,2.1,0.8,2.3,1.9c0.1,0.6,0.1,1.3,0,1.9c-0.1,0.5-0.4,1-0.7,1.4c-0.3,0.4-0.7,0.7-1.2,0.9c-0.6,0.3-1.2,0.4-1.8,0.4
		C933,217.9,932.1,217.2,931.8,216.1z"/>
	<path class="st3" d="M922.1,286.7c0.3-1.2,0.7-2.3,1.3-3.4c1.1-2,2.6-3.8,4.4-5.3c0.9-0.8,2-1.4,3.1-1.9c0.9-0.4,1.9,0.1,2.3,0.9
		c0,0,0,0,0,0c0.1,0.3,0.2,0.7,0.1,1c-0.3,1.2-0.7,2.3-1.3,3.4c-0.6,1-1.2,2-1.9,2.9c-0.7,0.9-1.6,1.7-2.4,2.5
		c-0.9,0.8-2,1.4-3.1,1.9c-0.9,0.4-1.9,0-2.2-0.9c0,0,0,0,0,0C922.1,287.4,922,287,922.1,286.7z"/>
	<path class="st3" d="M900.8,240.8c0.5-1.5,1.2-2.9,2-4.2c1.6-2.6,3.5-4.9,5.7-7c1.1-1.1,2.4-2,3.8-2.8c0.8-0.4,1.8-0.1,2.2,0.7
		c0,0,0,0,0,0c0.2,0.4,0.3,0.8,0.1,1.3c-0.5,1.5-1.2,2.9-2,4.2c-0.8,1.3-1.7,2.5-2.6,3.7c-1,1.2-2,2.3-3.1,3.3
		c-1.1,1.1-2.4,2-3.8,2.8c-0.8,0.4-1.8,0.1-2.2-0.7C900.7,241.7,900.6,241.2,900.8,240.8z"/>
	<path class="st0" d="M871,278.9c0.1-1,0.4-1.9,0.8-2.8c0.4-0.8,0.9-1.6,1.5-2.3c0.6-0.7,1.3-1.3,2-1.9c0.8-0.6,1.7-1.1,2.6-1.4
		c1-0.3,2,0.3,2.3,1.2c0,0,0,0,0,0c0.1,0.2,0.1,0.5,0.1,0.7c-0.1,1-0.4,1.9-0.8,2.8c-0.4,0.8-0.9,1.6-1.5,2.3
		c-0.6,0.7-1.3,1.3-2,1.9c-0.8,0.6-1.7,1.1-2.6,1.4c-1,0.3-2-0.3-2.3-1.2C871,279.4,871,279.2,871,278.9z"/>
	<path class="st0" d="M886.4,323.1c0.1-1,0.4-1.9,0.8-2.8c0.8-1.6,2-3.1,3.4-4.2c0.8-0.6,1.7-1.1,2.6-1.4c1-0.3,2,0.3,2.3,1.3
		c0.1,0.2,0.1,0.5,0.1,0.7c-0.1,1-0.4,1.9-0.8,2.8c-0.4,0.8-0.9,1.6-1.5,2.3c-0.6,0.7-1.3,1.3-2,1.9c-0.8,0.6-1.7,1.1-2.6,1.4
		c-1,0.3-2-0.3-2.3-1.2C886.4,323.5,886.3,323.3,886.4,323.1L886.4,323.1z"/>
	<path class="st0" d="M869.6,299c0.6-1.5,1.4-2.9,2.4-4.3c0.9-1.3,1.9-2.5,3-3.7c1.1-1.2,2.2-2.3,3.5-3.3c1.2-1.1,2.6-2,4.1-2.7
		c0.8-0.4,1.8-0.1,2.2,0.7c0,0,0,0,0,0c0.2,0.4,0.2,0.9,0.1,1.3c-0.6,1.5-1.4,2.9-2.4,4.3c-1.8,2.6-4,5-6.4,7
		c-1.2,1.1-2.6,2-4.1,2.7c-0.8,0.4-1.8,0.1-2.2-0.7c0,0,0,0,0,0C869.4,300,869.4,299.5,869.6,299z"/>
	<path class="st0" d="M849.1,337.9c0,0-4.1-6.7-5.2-10.6c-0.1-0.4-0.1-0.9,0.1-1.3l2.2-5.2c0.2-0.4,0.2-0.8,0.1-1.2l-0.5-2.4
		c-0.1-0.5,0-1,0.2-1.4c0.9-1.5,3.2-5,6.1-6.5c0.2-0.1,0.5-0.2,0.8-0.2l5.5-0.4c0.2,0,0.5-0.1,0.7-0.2l4-1.8
		c0.4-0.2,0.8-0.2,1.2-0.1c7.1,1.4,12.9,6.4,15.5,13.1c0.1,0.4,0.2,0.8,0.1,1.2l-1.4,5.2c-0.2,0.7-0.8,1.3-1.5,1.4l0,0
		c-1,0.2-1.7,1.3-1.5,2.3c0,0,0,0.1,0,0.1l1.1,4.1c0.3,1-0.2,1.9-1.2,2.3c-2.5,1-7.6,2.8-11.3,2.8c-0.5,0-1,0.1-1.3,0.4l-3.5,2.8
		c-0.5,0.4-1.2,0.5-1.8,0.4C855.5,341.9,851,340.3,849.1,337.9z"/>
	<path class="st3" d="M850.9,330c-0.1-0.6-0.1-1.3,0-1.9c0.1-0.5,0.4-0.9,0.7-1.3c0.3-0.4,0.7-0.7,1.2-1c0.6-0.3,1.2-0.4,1.8-0.4
		c1.1,0,2.1,0.8,2.3,1.9c0.2,0.6,0.2,1.3,0,1.9c-0.1,0.5-0.4,1-0.7,1.4c-0.7,0.9-1.8,1.4-3,1.4C852.1,331.9,851.1,331.1,850.9,330z"
		/>
	<path class="st3" d="M868.2,323.4c-0.1-0.4-0.1-0.8,0-1.2c0.1-0.3,0.2-0.6,0.4-0.8c0.2-0.2,0.4-0.4,0.7-0.6
		c0.4-0.2,0.8-0.2,1.2-0.2c0.7,0,1.4,0.6,1.6,1.3c0.1,0.4,0.1,0.8,0,1.2c-0.1,0.3-0.2,0.6-0.4,0.8c-0.2,0.2-0.5,0.4-0.7,0.6
		c-0.4,0.2-0.8,0.2-1.2,0.2C869,324.6,868.4,324.1,868.2,323.4z"/>
	<path class="st0" d="M895,283.7c-0.1-0.6-0.1-1.3,0-1.9c0.1-0.5,0.4-1,0.7-1.4c0.3-0.4,0.7-0.7,1.2-1c0.6-0.3,1.2-0.4,1.8-0.4
		c1.1,0,2.1,0.8,2.3,1.9c0.1,0.6,0.1,1.3,0,1.9c-0.1,0.5-0.4,1-0.7,1.4c-0.3,0.4-0.7,0.7-1.2,0.9c-0.6,0.3-1.2,0.4-1.8,0.4
		C896.2,285.6,895.2,284.8,895,283.7z"/>
	<circle class="st3" cx="491.3" cy="875" r="14.4"/>
	<circle class="st0" cx="487" cy="867.5" r="3"/>
	<circle class="st0" cx="492.4" cy="881.9" r="4.6"/>
	<path class="st2" d="M429.2,956.1c-8.3-1.6-16.5-3.6-24.5-6.1c-4-1.2-8-2.6-12-4c-4-1.4-7.9-3-11.8-4.6
		c-7.9-3.3-15.5-7.1-22.8-11.5l-0.6-0.4c1.1,29.9,26.2,53.3,56.1,52.2c16.7-0.6,32.2-8.9,42-22.4h-1
		C446,958.9,437.6,957.8,429.2,956.1z"/>
	<path class="st2" d="M386.8,926.9c3.7,1.4,7.4,2.8,11.2,4.1s7.6,2.5,11.4,3.7s7.6,2.3,11.5,3.3s7.7,2,11.6,2.9
		c7.7,1.8,15.4,3.2,23.2,4.2c2.4,0.3,4.7,0.5,7.1,0.6c10-28.2-4.8-59.2-33-69.2s-59.2,4.8-69.2,33c-0.5,1.5-1,3-1.4,4.6
		c1.9,1.1,3.9,2.2,6,3.2C372.2,921,379.4,924.1,386.8,926.9z"/>
	<path class="st1" d="M488.9,941.7c-0.5-1.5-1.2-2.9-2.1-4.1c-1.5-2-3.2-3.8-5.2-5.3c-1.8-1.4-3.6-2.6-5.5-3.8
		c-1.9-1.1-4.5-0.5-5.6,1.5c-1,1.6-0.7,3.7,0.7,5l0,0c1.4,1.3,2.7,2.6,4,4c1.1,1.2,2.1,2.5,2.8,4c0.2,0.4,0.3,0.7,0.4,1.1l-0.2,0.1
		c-0.2,0-0.2,0.1-0.5,0.2l-0.3,0.1l-0.4,0.1c-1.5,0.4-2.9,0.7-4.5,0.9c-1.8,0.2-3.6,0.2-5.4,0.2c-1.4,0-2.9-0.1-4.4-0.2
		c-2.3-0.1-4.7-0.3-7.1-0.6c-7.8-1-15.6-2.4-23.2-4.2c-3.9-0.9-7.7-1.8-11.6-2.9s-7.7-2.1-11.5-3.3s-7.6-2.3-11.4-3.6
		s-7.5-2.7-11.2-4.1c-7.4-2.8-14.6-6-21.6-9.5c-2-1-4-2.1-6-3.2c-1.4-0.8-2.7-1.6-4-2.5c-1.5-1-3-2-4.4-3.2c-1.2-1-2.3-2-3.2-3.2
		l-0.3-0.3l-0.2-0.3c-0.2-0.2-0.2-0.3-0.3-0.5c0,0,0-0.1-0.1-0.1v-0.2c0.3-0.2,0.6-0.5,0.9-0.7c1.4-0.8,3-1.4,4.5-1.8
		c1.8-0.5,3.7-0.9,5.5-1.1h0.1c2.2-0.4,3.7-2.5,3.4-4.7c-0.3-1.9-1.9-3.3-3.8-3.4c-2.2-0.1-4.5-0.1-6.7,0.1
		c-2.5,0.2-4.9,0.7-7.3,1.5c-1.5,0.5-2.8,1.3-4.1,2.3c-1.6,1.3-2.8,3-3.5,5c-0.6,2-0.7,4.1-0.2,6.1c0.2,0.8,0.5,1.6,0.8,2.4
		c0.1,0.4,0.3,0.7,0.5,1.1l0.5,1c1.3,2.2,2.9,4.3,4.8,6.1c1.6,1.7,3.3,3.2,5.1,4.6c3.2,2.6,6.7,5,10.2,7.1l0.6,0.4
		c7.4,4.3,15,8.1,22.9,11.4c3.9,1.7,7.8,3.2,11.8,4.6s8,2.7,12,4c8.1,2.5,16.2,4.5,24.5,6.1c8.4,1.7,16.8,2.7,25.3,3.2h1
		c4,0.2,8.1,0.1,12.1-0.2c2.3-0.2,4.6-0.5,6.9-1c2.5-0.5,5-1.3,7.4-2.4l1-0.5l1-0.6c0.7-0.5,1.4-1,2-1.6c1.5-1.4,2.6-3.3,3.2-5.3
		C489.7,945.7,489.6,943.6,488.9,941.7z"/>
	<path class="st0" d="M350.4,899.6c0.3,0.3,0.7,0.5,1.1,0.6c0.3,0.1,0.7,0.1,1,0.1c0.3,0,0.6-0.2,0.9-0.3c0.4-0.2,0.7-0.5,0.9-0.9
		l0-0.1c0.4-0.6,0.3-1.4-0.3-1.9c-0.3-0.3-0.7-0.5-1.1-0.6c-0.4-0.1-0.7-0.1-1.1,0c-0.4,0.1-0.7,0.2-1,0.4c-0.4,0.2-0.7,0.5-0.9,0.9
		C349.6,898.3,349.8,899.1,350.4,899.6L350.4,899.6z"/>
	<path class="st0" d="M346.9,897.7c0.1-0.1,0.1-0.2,0.2-0.4c0.2-0.6-0.2-1.3-0.8-1.5c0,0,0,0,0,0c-0.7-0.2-1.4-0.2-2.1,0
		c-0.7,0.1-1.3,0.4-1.9,0.8c-0.6,0.4-1.2,0.9-1.6,1.5c-0.4,0.7-0.7,1.4-0.6,2.2c0,0.1,0,0.2,0.1,0.3c0.2,0.6,0.9,0.9,1.5,0.6
		c0,0,0,0,0,0l0.2-0.1c0.6-0.2,1-0.4,1.4-0.6c0.4-0.2,0.8-0.4,1.2-0.7c0.4-0.3,0.8-0.6,1.2-0.9C346.1,898.7,346.6,898.3,346.9,897.7
		L346.9,897.7z"/>
	<path class="st0" d="M341.6,906.7c-0.3-0.2-0.6-0.4-1-0.5l-0.2-0.1c-0.6-0.2-1.3,0-1.7,0.6c-0.3,0.4-0.4,0.8-0.4,1.3
		c0,0.4,0.1,0.8,0.2,1.1c0.2,0.3,0.4,0.6,0.7,0.8c0.3,0.3,0.8,0.4,1.2,0.4c0.7,0.1,1.4-0.3,1.6-1v-0.1c0.1-0.4,0.2-0.7,0.2-1.1
		c0-0.3-0.1-0.5-0.2-0.8C341.9,907.1,341.8,906.8,341.6,906.7z"/>
	<path class="st0" d="M357.3,918.5c-0.2-0.6-0.5-1.1-0.9-1.6c-0.3-0.4-0.7-0.8-1.2-1.1c-0.4-0.3-0.9-0.6-1.4-0.8
		c-0.6-0.2-1.2-0.3-1.8-0.3h-0.1c-0.1,0-0.2,0-0.3,0.1c-0.6,0.2-1,0.9-0.8,1.5c0,0,0,0,0,0c0.2,0.6,0.5,1.1,0.9,1.6
		c0.4,0.4,0.8,0.8,1.3,1.1c0.5,0.3,1,0.6,1.5,0.8c0.6,0.2,1.2,0.3,1.8,0.3c0.1,0,0.2,0,0.4-0.1C357.2,919.9,357.5,919.2,357.3,918.5
		L357.3,918.5z"/>
	<path class="st0" d="M368,925.6c-0.2-0.2-0.4-0.4-0.7-0.6c-0.3-0.1-0.6-0.2-0.9-0.2c-0.4,0-0.8,0.1-1.1,0.3l0,0
		c-0.7,0.3-1,1.1-0.9,1.8c0,0.4,0.2,0.8,0.4,1.1c0.2,0.2,0.4,0.4,0.7,0.6c0.3,0.1,0.6,0.2,0.9,0.2c0.4,0,0.8-0.1,1.1-0.3
		c0.6-0.4,1-1.1,0.9-1.8l0,0C368.4,926.3,368.2,925.9,368,925.6z"/>
	<path class="st0" d="M389.9,931c-0.2-0.2-0.4-0.4-0.7-0.6c-0.3-0.1-0.6-0.2-0.9-0.2c-0.4,0-0.8,0.1-1.1,0.3l0,0
		c-0.6,0.3-1,1.1-0.9,1.8c0,0.4,0.2,0.8,0.4,1.1c0.2,0.2,0.4,0.4,0.7,0.6c0.3,0.1,0.6,0.2,0.9,0.2c0.4,0,0.8-0.1,1.1-0.3
		c0.6-0.4,1-1.1,0.9-1.8l0,0C390.3,931.7,390.1,931.3,389.9,931z"/>
	<path class="st0" d="M381.9,934c-0.6-0.6-1.2-1.2-1.9-1.7c-0.7-0.5-1.4-0.8-2.1-1.2c-0.7-0.3-1.5-0.6-2.3-0.8
		c-0.8-0.2-1.7-0.3-2.5-0.3l0,0c-0.2,0-0.5,0.1-0.6,0.3c-0.5,0.4-0.5,1.1-0.2,1.6c0,0,0,0,0,0c0.5,0.7,1.2,1.2,1.9,1.7
		c0.7,0.5,1.4,0.8,2.2,1.2c0.8,0.3,1.5,0.6,2.4,0.8c0.8,0.2,1.7,0.3,2.5,0.3c0.2,0,0.5-0.1,0.6-0.3
		C382.2,935.2,382.3,934.5,381.9,934L381.9,934z"/>
	<path class="st0" d="M416.1,941.7c-0.8-0.6-1.8-1.2-2.7-1.6c-0.9-0.4-1.9-0.8-2.9-1.1c-1-0.3-2-0.6-3-0.7c-1-0.2-2.1-0.3-3.2-0.2
		l0,0c-0.3,0-0.6,0.2-0.8,0.4c-0.4,0.5-0.3,1.2,0.1,1.5c0,0,0,0,0,0c0.8,0.7,1.7,1.2,2.7,1.7c0.9,0.4,1.9,0.8,2.9,1.1
		c1,0.3,2,0.5,3,0.7c1.1,0.2,2.1,0.2,3.2,0.1c0.3,0,0.6-0.2,0.8-0.4C416.6,942.7,416.6,942.1,416.1,941.7L416.1,941.7L416.1,941.7z"
		/>
	<path class="st0" d="M421.9,949.1c-0.1-0.4-0.3-0.7-0.5-0.9c-0.4-0.4-0.9-0.5-1.5-0.4c-0.4,0.1-0.7,0.3-0.9,0.5l0,0
		c-0.5,0.5-0.7,1.3-0.5,2c0.1,0.4,0.3,0.7,0.5,0.9c0.2,0.2,0.4,0.3,0.7,0.4c0.3,0.1,0.5,0.1,0.8,0c0.4-0.1,0.7-0.3,0.9-0.5
		C422,950.6,422.2,949.8,421.9,949.1L421.9,949.1z"/>
	<path class="st0" d="M434.2,944.3c-0.2-0.4-0.5-0.7-0.8-0.9c-0.3-0.2-0.6-0.3-0.9-0.4c-0.3-0.1-0.7-0.1-1,0
		c-0.4,0.1-0.8,0.3-1.1,0.6l0,0c-0.6,0.5-0.7,1.3-0.4,2c0.2,0.4,0.5,0.7,0.8,0.9c0.3,0.2,0.6,0.3,0.9,0.4c0.3,0.1,0.7,0.1,1,0
		c0.4-0.1,0.8-0.3,1.1-0.6C434.4,945.8,434.5,945,434.2,944.3L434.2,944.3z"/>
	<path class="st0" d="M453.4,951.8c-0.7-0.5-1.4-0.8-2.2-1c-0.8-0.2-1.5-0.4-2.3-0.5c-0.8-0.1-1.6-0.1-2.3-0.1
		c-0.8,0-1.7,0.2-2.4,0.5h0c-0.6,0.2-0.9,0.9-0.6,1.5c0.1,0.2,0.2,0.4,0.4,0.5c0.7,0.4,1.5,0.8,2.3,1c1.5,0.5,3.1,0.7,4.7,0.6
		c0.8,0,1.7-0.2,2.5-0.5c0.6-0.2,0.9-0.9,0.7-1.5C453.8,952.1,453.6,951.9,453.4,951.8L453.4,951.8z"/>
	<path class="st0" d="M473.5,953.5L473.5,953.5c-0.5-0.3-1-0.4-1.5-0.5c-0.5-0.1-0.9-0.1-1.4,0c-0.5,0.1-0.9,0.2-1.3,0.3
		c-0.5,0.2-0.9,0.5-1.3,0.9l0,0l-0.1,0.1c-0.4,0.6-0.3,1.4,0.3,1.9c0,0,0,0,0,0c0.4,0.3,1,0.6,1.5,0.7c1,0.2,2,0.1,2.9-0.4
		c0.5-0.2,1-0.6,1.3-1c0,0,0.1-0.1,0.1-0.2C474.4,954.7,474.2,953.9,473.5,953.5C473.6,953.5,473.5,953.5,473.5,953.5z"/>
	<path class="st0" d="M464.9,949.2c-0.2-0.3-0.4-0.6-0.6-0.8c-0.2-0.1-0.4-0.2-0.6-0.2c-0.2,0-0.5,0-0.6,0.2
		c-0.3,0.2-0.5,0.4-0.7,0.7l-0.1,0.1c-0.6,0.9-0.4,2.1,0.5,2.7c0.2,0.2,0.5,0.2,0.7,0.2c0.3,0,0.5,0,0.8-0.2
		c0.3-0.2,0.6-0.4,0.8-0.7c0.3-0.6,0.4-1.3,0-1.9L464.9,949.2z"/>
	<path class="st0" d="M483.8,941.9c-0.6-0.1-1.1,0.3-1.2,0.9c0,0,0,0,0,0v0.1c-0.1,0.8-0.2,1.5-0.5,2.2c-0.2,0.5-0.5,1-0.9,1.5
		c-0.5,0.5-1,1-1.5,1.5c-0.6,0.5-1.3,1-2,1.7l0,0c-0.2,0.2-0.3,0.4-0.3,0.7c0,0.6,0.4,1.1,1,1.2c2.3,0.1,4.5-0.9,5.9-2.6
		c0.8-1,1.3-2.3,1.3-3.6c0-1.2-0.4-2.4-1.1-3.3C484.3,942,484.1,941.9,483.8,941.9z"/>
	<path class="st0" d="M480.5,938.4c0.2,0.2,0.4,0.3,0.6,0.3c0.3,0.1,0.7,0.1,1,0h0.1c0.7-0.1,1.2-0.6,1.5-1.2c0.1-0.3,0.2-0.7,0.1-1
		c-0.1-0.3-0.2-0.5-0.3-0.7c-0.2-0.2-0.4-0.3-0.7-0.4c-0.3-0.1-0.7-0.1-1,0c-0.7,0.2-1.2,0.7-1.4,1.3v0.1c-0.1,0.3-0.1,0.7-0.1,1
		C480.2,938,480.3,938.2,480.5,938.4z"/>
	<path class="st0" d="M476.5,931.9c-0.3-0.2-0.6-0.4-1-0.5c-0.4-0.1-0.9-0.1-1.3,0c-0.7,0.2-1.2,0.8-1.2,1.6v0
		c0,0.4,0.1,0.9,0.3,1.2c0.2,0.3,0.4,0.6,0.6,0.8c0.3,0.2,0.6,0.4,0.9,0.5c0.4,0.1,0.9,0.1,1.3,0h0.1c0.7-0.1,1.2-0.8,1.2-1.5
		c0-0.4-0.1-0.9-0.3-1.2C477,932.4,476.8,932.1,476.5,931.9z"/>
	<path class="st1" d="M376.2,913.8c3.7,2.1,7.5,3.9,11.4,5.6s7.8,3.2,11.7,4.7s8,2.8,12,4c8.1,2.5,16.2,4.5,24.5,6
		c4.1,0.8,8.3,1.3,12.6,1.7c4.3,0.4,8.6,0.4,12.8-0.2c0.6-0.1,1-0.6,0.9-1.1c-0.1-0.6-0.6-1-1.1-0.9h0c-4.1,0.2-8.2-0.1-12.2-0.8
		c-4.1-0.6-8.1-1.3-12.2-2.2c-8.1-1.8-16.1-3.9-24.1-6.3s-15.8-5.1-23.5-8.2c-3.9-1.5-7.7-3.2-11.4-5c-3.7-1.7-7.3-3.7-10.6-6.1l0,0
		c-0.4-0.4-1.1-0.3-1.4,0.1s-0.3,1.1,0.1,1.4C368.9,909.4,372.4,911.8,376.2,913.8z"/>
	<path class="st1" d="M382.7,905.3c3.4,1.9,6.8,3.7,10.3,5.2s7.1,3,10.6,4.4s7.2,2.5,10.9,3.7s7.4,2.1,11.1,3s7.5,1.7,11.3,2.3
		c3.8,0.7,7.6,1.1,11.5,1.4c3.9,0.3,7.9,0.2,11.8-0.5c0.8-0.2,1.3-1.1,1.1-1.9c-0.2-0.6-0.7-1.1-1.4-1.1h-0.1c-3.7,0-7.3-0.3-10.9-1
		c-3.7-0.6-7.3-1.3-11-2.2c-7.3-1.7-14.5-3.6-21.7-5.8s-14.2-4.6-21.2-7.2c-3.5-1.3-6.9-2.8-10.3-4.3c-3.4-1.5-6.6-3.2-9.6-5.2h-0.1
		c-0.7-0.5-1.7-0.3-2.1,0.5c-0.4,0.6-0.3,1.4,0.2,1.9C376.1,901.1,379.3,903.4,382.7,905.3z"/>
	<path class="st1" d="M396,891.9c2.5,1.4,5.1,2.7,7.7,3.9s5.3,2.2,8,3.3s5.4,1.9,8.1,2.7c5.5,1.7,11.1,3,16.7,4
		c2.8,0.5,5.7,0.9,8.6,1.1c2.9,0.3,5.9,0.2,8.8-0.3c0.6-0.1,1-0.6,0.9-1.1s-0.6-1-1.1-0.9h0c-2.7,0-5.5-0.2-8.2-0.7
		c-2.8-0.4-5.5-1-8.2-1.6c-5.5-1.2-10.9-2.7-16.3-4.3s-10.7-3.4-15.9-5.5c-2.6-1-5.2-2.1-7.7-3.3c-2.5-1.1-4.9-2.4-7.2-4l0,0
		c-0.4-0.4-1.1-0.3-1.4,0.1s-0.3,1.1,0.1,1.4C391.1,888.8,393.5,890.5,396,891.9z"/>
	<path class="st1" d="M435.3,962.2L435.3,962.2c-2.7,0-5.5-0.2-8.2-0.7c-2.8-0.4-5.5-1-8.2-1.6c-5.5-1.2-10.9-2.7-16.3-4.3
		c-5.4-1.6-10.7-3.4-15.9-5.5c-2.6-1-5.2-2.1-7.7-3.3c-2.5-1.1-4.9-2.4-7.2-4l0,0c-0.4-0.3-1-0.2-1.3,0.1c-0.4,0.4-0.4,1,0,1.4
		c0,0,0,0,0,0c2.2,2,4.6,3.7,7.1,5.1c2.5,1.4,5.1,2.7,7.7,3.9c2.6,1.2,5.3,2.2,8,3.2s5.4,1.9,8.1,2.8c5.5,1.7,11.1,3,16.7,4
		c2.8,0.5,5.7,0.9,8.6,1.1c2.9,0.3,5.9,0.2,8.8-0.3c0.6-0.1,1-0.6,0.9-1.1S436,962.1,435.3,962.2L435.3,962.2z"/>
	<path class="st1" d="M409.8,887.8c1.2,0.8,2.4,1.5,3.7,2.2c2.5,1.3,5.2,2.3,7.9,3.1c2.7,0.8,5.5,1.4,8.3,1.8
		c1.4,0.2,2.9,0.3,4.3,0.2c1.5,0,3.1-0.2,4.5-0.6c0.8-0.2,1.3-1.1,1-1.9c-0.2-0.6-0.7-1-1.2-1.1H438c-1.1-0.2-2.4-0.5-3.6-0.8
		s-2.5-0.7-3.8-1c-2.5-0.7-5-1.5-7.6-2.2s-5-1.5-7.5-2.4c-1.2-0.4-2.5-0.8-3.7-1.2s-2.4-0.9-3.5-1.3l-0.2-0.1c-0.8-0.3-1.7,0-2,0.8
		c-0.2,0.5-0.1,1.1,0.2,1.6C407.3,885.9,408.5,886.9,409.8,887.8z"/>
	<path class="st1" d="M417.6,970.4h-0.2c-1.5-0.2-2.9-0.5-4.3-0.8c-1.5-0.3-3-0.8-4.5-1.1c-3-0.8-6-1.7-8.9-2.6s-5.9-1.8-8.9-2.8
		c-1.5-0.5-2.9-1-4.3-1.5c-1.4-0.5-2.7-1.1-4.1-1.7l-0.1-0.1c-0.8-0.4-1.7-0.1-2.1,0.7c-0.3,0.5-0.2,1.2,0.2,1.7
		c1.2,1.3,2.5,2.5,4,3.4c1.4,0.9,2.8,1.8,4.4,2.5c5.9,2.9,12.3,4.8,18.8,5.7c1.7,0.2,3.3,0.3,5,0.4c1.8,0,3.5-0.2,5.2-0.6
		c0.8-0.2,1.3-1.1,1-1.9C418.7,970.9,418.2,970.5,417.6,970.4L417.6,970.4z"/>
</g>
<g id="Calque_2">
	<g>
		<path class="st2" d="M748,311.8c-25.7-13-38.6-11.3-46.7,2c-6.7-0.8-11.5-0.1-12.7,1.9c3.7,1.6,7.4,3.4,11.2,5.4
			c3.6,1.9,7.1,4.1,10.3,6.6l0.2,0.1l0,0l0.2,0.2c1.3,1,2.6,2.1,3.9,3.3c0,0,0.1,0.1,0.1,0.1l0.1,0.1c2.4,2.2,4.6,4.6,6.6,7.2
			l0.1,0.1c0.1,0.1,0.1,0.2,0.2,0.2c1.1,1.5,2.2,3,3.1,4.6c1.6,2.7,3,5.6,4.1,8.6l0,0.1l0.1,0.2c0.6,1.7,1.1,3.3,1.5,5v0.1
			c0.8,3.5,1.3,7.1,1.5,10.8v0.1c0.5,11.7-2.2,25.3-9.1,40.6l0,0.1v0.1c-0.5,1.2-1.1,2.4-1.7,3.6s-1.3,2.6-2,4
			c-0.1,0.2-0.2,0.4-0.3,0.5c-0.6,1.1-1.1,2.2-1.7,3.3l0,0.1l-0.7,1.2c-0.4,0.8-0.9,1.6-1.3,2.4c-0.3,0.5-0.6,1-0.9,1.5
			c-0.4,0.7-0.8,1.4-1.2,2c-0.3,0.5-0.6,1-0.9,1.5c-0.4,0.6-0.9,1.3-1.3,1.9l-0.9,1.3l-0.4,0.6l-0.1,0.1
			c-21.9,30.6-49.1,35.2-73.8,24.9c0,0-18.2-6.4-31.2-20.9c-3-0.5-6-0.7-9-0.8l0,0c-11.3-0.2-21.4,2.3-30.3,4.5
			c-14.3,3.6-28,7-49.5,0l0,0l-12.2-4.7c-8-3.6-15.7-7.8-23.2-12.4c-18.6-11.5-43.4-14.7-61.2-1.3c-23.9,17.9-5.3,47.9,7.5,40.5
			s18.7-0.7,27.1,4.2c9.5,5.9,19.4,11.1,29.6,15.6c0,0,8.9,3.7,12.3,4.9c10.5,3.8,21.4,6.3,32.6,7.5c4,0.4,7.9,0.6,11.5,0.6
			c5.2,0,10.5-0.4,15.7-1.1c0,0,2.8-0.2,7.3-1.1v0.1c-2.7,5.6-9.4,16.2-16.9,25.5c-2.7,3.6-5.7,7-9.1,10c-5.7,5.4-11.2,8.8-15.4,7.9
			l-0.5-0.1c-35.5-9.4-72.4-11.9-108.8-7.2c-6.6,0.8-13.5,1.9-20.4,3.3l-13.2,2.9c-13.7,3.4-27.3,7.6-40.4,12.8c0,0-2.6,0.7-5.1,1.7
			c0.1-0.5,0.3-1,0.5-1.4c5.3-35-23.3-34.8-31-33.7c22.4-3.6,18.9,110.3-0.5,104.7c16.6,6.8,20.5-7.6,44.2-19.5
			c13.7-6,27.8-10.9,42.3-14.6l12.9-3l0,0l1.3-0.2l14.5-2.4c17.9-2.4,36-2.7,54-1c15.5,1.4,30.8,4.6,45.6,9.5c0,0,2.7,1,6.4,2
			c0.1,0.6,0.3,1.2,0.4,1.7c3.7,6.2,19.4,29.9,41.8,34.6c-17.3-2.5-34.9-2-52.1,1.3c-7.3,1.4-14.6,3.2-21.7,5.4
			c-1.3,0.4-2.8,0.9-4.4,1.5c-1.3-1.1-2.7-2-4.2-2.8c-0.5-0.2-1-0.3-1.5-0.2c-11.6,3.1-22.6,8.4-32.2,15.6c-0.6,0.4-0.9,1.1-0.9,1.8
			c0,0.7,0.3,1.3,0.9,1.8c0.7,0.5,1.4,1.1,2.1,1.7c-1.2,0.8-2.4,1.5-3.5,2.3c-6.4,4.5-12.5,9.4-18.2,14.8c-5,4.8-5.6,5-9.9,9.8
			c-8.3,8.8-16,18.3-22.9,28.3c-1.7,2.5-3.1,5-4.4,7.7c0-1-0.1-2.1-0.1-3.1c-3.9-34.4-32.8-24.5-40.5-21.3
			c20.6-7.7,46.1,101.9,26,101.5c17.8,2.3,31.1-14,42.1-30.2c10.9-16.2,24-30.9,38.9-43.6c0,0,5-4.3,10.1-8
			c47.9-35,93.4-33.1,96.7-32.4l-0.1,0c9.1,1.9,18.8,1.4,28.6-0.9c5.9-1.4,11.7-3.3,17.2-5.8c0,0,0.5-0.2,1-0.3c0,0,0.6,0.5,1.7,1.3
			c0.1,0,0.1,0.1,0.2,0.1c1.6,1.3,3.1,2.5,4.7,3.5c1.2,0.8,2.7,0.9,4,0.3c2.9-1.4,8.6-4.3,15-8.2c1.9-1.2,3.9-2.4,5.8-3.8
			c6.2-4.1,11.9-8.8,17-14.2c1.5-1.6,1.4-4.2-0.3-5.7c-0.1-0.1-0.2-0.2-0.3-0.3l-0.6-0.4c0,0-3.1-2-2.2-2.8c3-2.6,5.9-5.3,8.7-8.2
			c1-0.9,1.9-1.9,2.8-2.8c0.7-0.7,1.4-1.4,2.1-2.1c0,0,7.7-8.4,9-10l1.3-1.5c2.9-3.4,5.6-6.8,8.2-10.3c1.1-1.4,2.1-2.8,3.1-4.2
			c12.6-17.5,21.8-35.6,25.4-51.3l0,0c0.7-2.4,1.1-4.9,1.2-7.4l0.7,1.6l0,0c0.3,0.6,0.6,1.3,0.9,1.9l0.6,1.4
			c1.2,2.7,2.1,5.4,2.8,8.2c4.5,18,0.4,39.2-6.2,58l-4.7,12.1c-1.5,3.5-3.1,6.9-4.6,10.1l-1.5,3.1c0,0.1-0.1,0.1-0.1,0.2
			c-0.1,0.2-0.2,0.4-0.3,0.6c-2.6,4.8-6.2,5.4-13.2,6.5c-2.2,0.3-4.7,0.7-7.7,1.3c-2.6,0.5-5.4,1.1-8.7,2c-17,4.6-9.2,20.3-0.1,16.8
			c4.1-1.6,18.6,0.3,5.7,13.9c-2.4,2.5-4.6,5.1-6.6,7.9c-0.8,1.2-1.6,2.4-2.3,3.7c-1,1.7-1.8,3.6-2.3,5.5
			c-2.1,8.6,3.8,14.3,17.6,17.4c27.4,6.2,33.7-8.2,48.9-28c8.8-13.5,16.4-27.7,22.6-42.6l4.9-12.5c8.3-23.1,12.1-44.6,11.4-64.5
			c-0.3-8-1.4-16-3.3-23.7c-0.6-2.5-1.3-5-2.1-7.4c-4-12.3-10.4-23.7-18.7-33.7c-0.2-0.3-0.4-0.5-0.7-0.8
			c-4.5-5.1-9.4-9.9-14.7-14.3c0.2,0.2,0.5,0.4,0.8,0.6l0,0l0.4-0.5c4.9-6.1,9.3-12,13.3-17.7c12.5-18,20.4-34.4,24.8-49
			c2-6.6,3.3-13.3,4-20.1c0.6-6.3,0.4-12.7-0.5-19C791.5,347.7,765,320.4,748,311.8z"/>
		<path class="st4" d="M786.9,439.4c-1.2-5.9-4.6-11.5-10.5-16.6c-4.4,14.6-12.3,31-24.8,49c5.8,4.2,11.4,8.7,16.8,13.5
			C783.1,466.1,789.1,451,786.9,439.4z"/>
		<path class="st1" d="M786.9,439.4c2.2,11.6-3.8,26.7-18.5,45.8c4.7,4.1,8.9,8.7,12.8,13.6l0,0c19.7-25,27.3-45,23.8-62.9
			c-2.5-12.8-10.5-23.8-24.6-33.2l0,0c-0.7,6.8-2,13.6-4,20.1C782.3,427.9,785.7,433.5,786.9,439.4z"/>
		<path class="st3" d="M781.1,498.8c-3.8-4.9-8.1-9.4-12.8-13.6c-5.3-4.8-10.9-9.3-16.8-13.5c-4,5.7-8.4,11.6-13.3,17.7l-0.4,0.5
			l0,0c5,4.1,9.7,8.7,13.9,13.7c0.2,0.2,0.5,0.5,0.7,0.8c1.4-0.3,2.8-0.5,4.3-0.5c11.1,0,20.1,9,20.1,20.1c0,5.2-2,10.3-5.7,14
			c0.8,2.4,1.5,4.9,2.1,7.4c1.9,7.8,3,15.7,3.3,23.7C793.4,542,799,521.9,781.1,498.8z"/>
		<path class="st0" d="M776.9,524.1c0-11.1-9-20.1-20.1-20.1c-1.4,0-2.9,0.2-4.3,0.5c8.3,9.9,14.7,21.4,18.7,33.7
			C774.8,534.4,776.9,529.3,776.9,524.1z"/>
		<path class="st1" d="M717.7,615.6c-0.6,1.7-1.2,3.3-1.8,5c-0.5,1.3-1,2.6-1.5,3.8s-0.9,2.2-1.4,3.3c6.4,0.8,12.6,2.3,18.7,4.2
			c8.7,2.8,19.3,7.2,28.7,14.3l0,0l1-2.5c1.4-3.3,2.6-6.6,3.8-9.9c-7.2-6.1-16.4-10.3-24.8-13C733,618.3,725.4,616.6,717.7,615.6z"
			/>
		<path class="st5" d="M640.2,389.1c-1.5,2.1-1,5.1,1.1,6.6c0.2,0.1,0.3,0.2,0.5,0.3l4,2.2c0.5-1.1,1.2-2.2,1.9-3.1
			c0.8-1.1,1.7-2,2.8-2.8c0.5-0.4,1.2-0.3,1.5,0.2c0,0,0,0,0,0c0.2,0.2,0.3,0.5,0.2,0.8c-0.2,1.3-0.6,2.6-1.1,3.8
			c-0.4,1.1-1,2.2-1.7,3.2l8.5,4.7c0.5-1.1,1.2-2.2,2-3.2c0.8-1.1,1.7-2,2.8-2.8c0.5-0.4,1.2-0.3,1.5,0.2c0.2,0.2,0.3,0.5,0.2,0.8
			c-0.2,1.3-0.6,2.6-1.1,3.8c-0.5,1.1-1,2.2-1.8,3.2l9,5c0.5-1.1,1.2-2.2,2-3.2c0.8-1.1,1.7-2,2.8-2.8c0.5-0.4,1.2-0.3,1.5,0.2
			c0.2,0.2,0.3,0.5,0.2,0.8c-0.2,1.3-0.6,2.6-1.1,3.8c-0.4,1.1-1,2.2-1.7,3.2l8.5,4.7l0,0c0.5-1.2,1.2-2.3,2-3.3
			c0.8-1.1,1.7-2,2.8-2.8c0.5-0.4,1.2-0.3,1.5,0.2c0.2,0.2,0.3,0.5,0.2,0.8c-0.2,1.3-0.6,2.6-1.1,3.8c-0.4,1.2-1,2.3-1.8,3.3
			l7.5,4.2c2.1,1.2,4.8,0.6,6.2-1.4c4.1-5.9,8.1-12.7,15.2-12.1l1.3-2.7l0.8-1.6c0.2-0.5,0.5-1.1,0.7-1.6c3.8-8.4,6.3-17.4,7.5-26.5
			c0.3-2.2,0.4-4.5,0.4-6.7v-3.3l-0.3-3.3l-0.2-1.6c-0.1-0.5-0.2-1.1-0.3-1.6l-0.6-3.2l-0.9-3.1l-0.5-1.6l-0.6-1.5
			c-0.4-1-0.8-2-1.3-3l-1.6-2.8c-0.5-1-1.1-1.9-1.7-2.7l-1-1.4c-0.2-0.2-0.3-0.5-0.5-0.7l-0.5-0.6l-2.1-2.5
			c-0.7-0.8-1.5-1.5-2.3-2.3l-1.2-1.2c-0.4-0.4-0.8-0.7-1.3-1.1l-0.9-0.8c-32.2-17.7-46.4-13-65.8,19.7c-7,11.8-1.7,18.6,0.9,21.4
			C645.5,377.4,645.4,381.6,640.2,389.1z"/>
		<path class="st5" d="M724.5,343.6l0.3,0.5l1.7,3.2c0.5,1.1,1,2.2,1.4,3.4l0.7,1.6C727.6,349.3,726.2,346.4,724.5,343.6
			L724.5,343.6z"/>
		<path class="st5" d="M731.8,368.7c0,1.2,0,2.4,0,3.6c0,2.4-0.2,4.9-0.5,7.3c-1.3,9.7-4,19.2-8,28.1c-0.2,0.5-0.4,1-0.7,1.6
			C729.5,394,732.3,380.4,731.8,368.7z"/>
		<path class="st5" d="M731,361.3c0.1,0.6,0.2,1.2,0.3,1.8l0.2,1.8l0.3,3.6c-0.2-3.6-0.7-7.2-1.5-10.8L731,361.3z"/>
		<path class="st5" d="M721.9,411.1l-1,2h0.1c0.6-1.2,1.1-2.4,1.7-3.6L721.9,411.1z"/>
		<path class="st5" d="M729.2,354.2c0.3,1.2,0.7,2.3,1,3.5c-0.4-1.7-0.9-3.4-1.5-5L729.2,354.2z"/>
		<path class="st3" d="M701.8,609.6c2.9,2.1,5.8,4.2,8.6,6.4c1.8,1.5,3.7,3,5.4,4.6c0.6-1.6,1.2-3.3,1.8-5c6.6-18.8,10.7-40,6.2-58
			c-1-4-2.5-7.9-4.4-11.5c-0.1,0.1-0.3,0.1-0.4,0.2c-0.1,0-0.2,0-0.3,0c-2.6,17-12.4,37.3-26.5,57l0.7,0.4
			C696,605.5,698.9,607.5,701.8,609.6z"/>
		<path class="st0" d="M698.4,614.5c2.9,2,5.9,4,9,5.9c2.3,1.4,4.6,2.8,7,4c0.5-1.3,1-2.5,1.5-3.8c-1.8-1.6-3.6-3.1-5.4-4.6
			c-2.8-2.2-5.7-4.4-8.6-6.4s-5.9-4-9-5.9l-0.7-0.4c-1,1.4-2,2.8-3.1,4.2c0.2,0.2,0.5,0.4,0.7,0.6
			C692.6,610.3,695.5,612.4,698.4,614.5z"/>
		<path class="st3" d="M693.2,625.7c2.9,2.1,5.8,4.2,8.6,6.4c2.2,1.8,4.5,3.7,6.6,5.7c1.5-3.2,3.1-6.6,4.6-10.1
			c0.5-1.1,0.9-2.2,1.4-3.3c-2.4-1.2-4.7-2.6-7-4c-3.1-1.9-6-3.9-9-5.9s-5.8-4.2-8.6-6.5c-0.2-0.2-0.5-0.4-0.7-0.6
			c-2.6,3.5-5.4,6.9-8.2,10.3c1.1,0.7,2.2,1.3,3.3,2C687.3,621.7,690.2,623.7,693.2,625.7z"/>
		<path class="st0" d="M681.1,624.2c2.8,2.3,5.7,4.4,8.6,6.5s5.9,4,9,5.9c2.6,1.6,5.3,3.2,8,4.6c0-0.1,0.1-0.1,0.1-0.2l1.5-3.1
			c-2.1-2-4.3-3.9-6.6-5.7c-2.8-2.2-5.7-4.4-8.6-6.4s-5.9-4-9-5.9c-1.1-0.7-2.2-1.4-3.3-2l-1.3,1.5c-0.6,0.7-1.2,1.4-1.8,2.1
			C678.9,622.3,680,623.2,681.1,624.2z"/>
		<path class="st3" d="M689.7,630.6c-2.9-2.1-5.8-4.2-8.6-6.5c-1.1-0.9-2.3-1.8-3.4-2.8c-2.4,2.7-4.8,5.3-7.2,7.9l0,0
			c-0.7,0.7-1.4,1.4-2.1,2.1c2.2,1.2,4.3,2.4,6.3,3.7c3.1,1.9,6,3.9,9,5.9s5.8,4.2,8.6,6.5l0.9,0.7c7-1.1,10.6-1.7,13.2-6.5
			c0.1-0.2,0.2-0.4,0.3-0.6c-2.8-1.4-5.4-3-8-4.6C695.6,634.7,692.6,632.7,689.7,630.6z"/>
		<path class="st0" d="M683.7,641c-2.9-2-5.9-4-9-5.9c-2.1-1.3-4.2-2.5-6.3-3.7c-0.9,1-1.9,1.9-2.8,2.8c2,1.8,4,3.5,6.1,5.2
			c2.8,2.2,5.7,4.4,8.6,6.5c1.7,1.2,3.5,2.4,5.3,3.6c2.9-0.6,5.5-1,7.7-1.3l-0.9-0.7C689.5,645.2,686.7,643,683.7,641z"/>
		<path class="st5" d="M655,446.6c21.8,5.6,31.3,3.5,36.8-7.6c1.2-2.3,0.2-5.2-2.1-6.4c-0.3-0.1-0.6-0.2-0.9-0.3l-6.9-1.9
			c-0.2,1.1-0.6,2.3-1.1,3.3c-0.5,1.2-1.2,2.4-2,3.4c-0.4,0.5-1.1,0.5-1.5,0.2c-0.2-0.2-0.4-0.5-0.4-0.7c-0.1-1.3-0.1-2.6,0.1-4
			c0.2-1.1,0.4-2.3,0.8-3.3l-9.3-2.5c-0.2,1.2-0.6,2.3-1.1,3.4c-0.5,1.2-1.2,2.4-2,3.4c-0.4,0.5-1.1,0.5-1.5,0.2
			c-0.2-0.2-0.4-0.5-0.4-0.7c-0.1-1.3-0.1-2.6,0.1-4c0.2-1.2,0.4-2.3,0.9-3.4l-10-2.7c-0.2,1.2-0.6,2.3-1.1,3.4
			c-0.5,1.2-1.2,2.4-2,3.4c-0.4,0.5-1.1,0.5-1.5,0.2c-0.2-0.2-0.4-0.5-0.4-0.7c-0.1-1.3-0.1-2.7,0.1-4c0.2-1.1,0.4-2.3,0.8-3.4
			l-9.3-2.4c-0.2,1.2-0.6,2.3-1.1,3.4c-0.5,1.2-1.2,2.4-2,3.4c-0.4,0.5-1.1,0.5-1.5,0.2c-0.2-0.2-0.4-0.4-0.4-0.7
			c-0.1-1.3-0.1-2.6,0.1-4c0.2-1.2,0.4-2.3,0.9-3.4l-1.1-0.3c-2.5-0.7-5.1,0.8-5.9,3.3c-0.1,0.2-0.1,0.5-0.1,0.7
			C628.7,432.5,632.9,440.9,655,446.6z"/>
		<path class="st1" d="M671.7,639.4c-2.1-1.7-4.1-3.4-6.1-5.2c-2.8,2.8-5.8,5.5-8.7,8.2l1.9,1.6l0,0c0.3,0.3,0.4,0.8,0.2,1.2
			l0.6,0.4c1.8,1.3,2.2,3.8,0.9,5.6c-0.1,0.1-0.2,0.2-0.3,0.3c-5.1,5.4-10.8,10.2-17,14.2l1.2,0.7c3.9,2.4,7.7,4.9,11.4,7.5
			s7.4,5.3,10.9,8.2c3.2,2.5,6.2,5.1,9.2,8c2-2.8,4.2-5.4,6.6-7.9c12.9-13.6-1.6-15.5-5.7-13.9c-9,3.5-16.8-12.2,0.1-16.8
			c3.2-0.9,6.1-1.5,8.7-2c-1.8-1.2-3.5-2.4-5.3-3.6C677.4,643.8,674.5,641.7,671.7,639.4z"/>
		<path class="st1" d="M670.5,629.3L670.5,629.3c2.5-2.6,4.9-5.2,7.2-7.9c0.6-0.7,1.2-1.4,1.8-2.1c-2.3-0.8-4.5-1.7-6.7-2.5
			c-36.2-14.2-69.2-35.3-97.2-62.2l0,0c0,0,28.3-39.9,53.7-85.1c19.6,12.2,46.1,23.5,74.3,29.5c15.8,3.5,32,5.1,48.2,4.7
			c-4.2-5-8.9-9.5-13.9-13.7c-0.2-0.2-0.5-0.4-0.8-0.6c-9-0.5-17.9-1.5-26.8-3.2c-26.4-4.9-51.8-14.2-75.2-27.4l0.2-0.4
			c-2.2-0.9-4.3-1.9-6.5-3c-2.1-1.1-4.2-2.2-6.2-3.4c-7.2-4.2-13.7-8.8-18.6-14.4c-2.2-0.4-4.4-0.6-6.5-0.7l0,0
			c1.8,7.4,9.1,16,20.2,24.5c0.7,0.5,1.3,1,2,1.5c-5.5,9.7-11,19.1-16.4,27.7l0,0c-19.7,31.7-37,54.4-37,54.4
			c-14-14.8-20.9-25.3-20.9-25.3c-2.8,3.5-5.8,6.9-9.1,10C536.3,529.7,579.6,596.3,670.5,629.3z"/>
		<path class="st0" d="M655.8,674c-3.7-2.6-7.5-5.2-11.4-7.5l-1.2-0.7c-2,1.3-3.9,2.6-5.8,3.8c1,0.8,2,1.7,3.1,2.5
			c3.5,2.9,7.2,5.6,10.9,8.2s7.5,5.2,11.4,7.5c3.5,2.2,7,4.2,10.8,6.1c0.7-1.3,1.5-2.5,2.3-3.7c-2.9-2.8-6-5.4-9.2-8
			C663.1,679.3,659.5,676.6,655.8,674z"/>
		<path class="st3" d="M662.8,687.8c-3.9-2.4-7.7-4.9-11.4-7.5s-7.3-5.3-10.9-8.2c-1-0.8-2-1.7-3.1-2.5c-6.4,3.9-12.1,6.8-15,8.2
			c-1.3,0.6-2.8,0.5-4-0.3c-1.6-1.1-3.2-2.3-4.8-3.7c0,0,0,0,0,0c-0.4,0.4-0.9,0.4-1.4,0.1c-0.5-0.4-0.9-0.7-1.4-1.1
			c-5.6,2.4-11.3,4.4-17.2,5.8l0.2,1c32.6,35.6,61.7,33.1,77.5,19.8c0.5-1.9,1.3-3.8,2.3-5.5C669.8,692,666.2,689.9,662.8,687.8z"/>
		<path class="st0" d="M622.6,452c2,1.2,4.1,2.3,6.2,3.4s4.3,2.1,6.5,3c24.7,10.3,51.9,5.6,73.8-24.9l0.1-0.1l0.4-0.6l0.9-1.3
			c0.4-0.6,0.9-1.3,1.3-1.9c0.3-0.5,0.6-1,0.9-1.5c0.4-0.7,0.8-1.3,1.2-2c0.3-0.5,0.6-1,0.9-1.5c0.5-0.8,0.9-1.6,1.3-2.4l0.7-1.2
			l0-0.1c0.6-1.1,1.2-2.2,1.7-3.3c0.1-0.2,0.2-0.4,0.3-0.5c0.7-1.4,1.3-2.7,2-4h-0.1l1-2l0.8-1.6v-0.1l0-0.1c0.2-0.5,0.4-1,0.7-1.6
			c4-8.9,6.7-18.4,8-28.1c0.3-2.4,0.5-4.9,0.5-7.3c0-1.2,0-2.4,0-3.6v-0.1l-0.3-3.6l-0.2-1.8c-0.1-0.6-0.2-1.2-0.3-1.8l-0.7-3.6
			v-0.1c-0.3-1.2-0.7-2.3-1-3.5l-0.5-1.6l-0.1-0.2l0-0.1l-0.7-1.6c-0.5-1.1-0.9-2.3-1.4-3.4l-1.7-3.2l-0.3-0.5l0,0
			c-0.9-1.6-2-3.2-3.1-4.6c-0.1-0.1-0.1-0.2-0.2-0.2l-0.1-0.1c-2-2.6-4.2-5-6.6-7.2l-0.1-0.1c0,0-0.1-0.1-0.1-0.1
			c-1.2-1.1-2.5-2.2-3.9-3.3l-0.2-0.2l0,0l-0.2-0.1c-3.3-2.5-6.7-4.7-10.3-6.6c-3.8-2-7.5-3.8-11.2-5.4c-1.1-0.5-2.3-0.9-3.4-1.4
			l0,0c-0.3,0.7-1.1,1.1-1.8,0.9l0,0c-6.8-2.1-13.8-3.4-20.7-2.6c-3.4,0.3-6.7,1.2-9.9,2.4c-3.2,1.3-6.2,3-9,4.9
			c-5.6,4.2-10.7,9.1-14.9,14.6c-4.4,5.6-8.4,11.5-12,17.7c-3.6,6.2-7,12.5-10,19c-3.1,6.4-5.7,13.1-7.8,19.9
			c-2.1,6.7-3.2,13.7-3.2,20.7c0,7,1.9,13.8,5.5,19.8l0,0c0.4,0.7,0.2,1.5-0.5,2c0.9,1.3,1.9,2.6,3,3.8
			C609,443.2,615.4,447.8,622.6,452z M642.5,353.6c19.5-32.7,33.6-37.4,65.8-19.7l0.9,0.8c0.4,0.4,0.9,0.7,1.3,1.1l1.2,1.2
			c0.8,0.8,1.6,1.5,2.3,2.3l2.1,2.5l0.5,0.6c0.2,0.2,0.3,0.5,0.5,0.7l0.9,1.3c0.6,0.9,1.2,1.8,1.7,2.7l1.6,2.8c0.5,1,0.8,2,1.3,3
			l0.6,1.5l0.5,1.6l0.9,3.1l0.6,3.2c0.1,0.5,0.2,1.1,0.3,1.6l0.2,1.6l0.3,3.3v3.3c0,2.2-0.1,4.5-0.4,6.7c-1.2,9.2-3.7,18.1-7.5,26.5
			c-0.2,0.5-0.4,1.1-0.7,1.6l-0.8,1.6l-1.3,2.7c-7.1-0.6-11.1,6.2-15.2,12.1c-1.4,2-4.1,2.6-6.2,1.4l-7.5-4.2c0.7-1,1.3-2.1,1.8-3.3
			c0.5-1.2,0.9-2.5,1.1-3.8c0-0.3,0-0.6-0.2-0.8c-0.4-0.5-1.1-0.6-1.5-0.2c-1,0.8-2,1.8-2.8,2.8c-0.8,1-1.5,2.1-2,3.3l0,0l-8.5-4.7
			c0.7-1,1.3-2.1,1.7-3.2c0.5-1.2,0.9-2.5,1.1-3.8c0-0.3,0-0.6-0.2-0.8c-0.4-0.5-1.1-0.6-1.5-0.2c-1,0.8-2,1.8-2.8,2.8
			c-0.8,1-1.5,2-2,3.2l-9-5c0.7-1,1.3-2.1,1.8-3.2c0.5-1.2,0.9-2.5,1.1-3.8c0-0.3,0-0.6-0.2-0.8c-0.4-0.5-1.1-0.6-1.5-0.2
			c-1,0.8-2,1.8-2.8,2.8c-0.8,1-1.5,2.1-2,3.2l-8.5-4.7c0.7-1,1.3-2,1.7-3.2c0.5-1.2,0.9-2.5,1.1-3.8c0-0.3,0-0.6-0.2-0.8
			c-0.4-0.5-1-0.6-1.5-0.2c0,0,0,0,0,0c-1,0.8-2,1.8-2.8,2.8c-0.8,1-1.4,2-1.9,3.1l-4-2.2c-2.3-1.3-3.1-4.1-1.8-6.4
			c0.1-0.2,0.2-0.3,0.3-0.5c5.3-7.4,5.3-11.7,3.2-14.1C640.8,372.2,635.4,365.4,642.5,353.6L642.5,353.6z M629.9,422
			c0.3-2.6,2.7-4.5,5.3-4.1c0.2,0,0.5,0.1,0.7,0.1l1.1,0.3c-0.4,1.1-0.7,2.2-0.9,3.4c-0.2,1.3-0.2,2.6-0.1,4c0.1,0.6,0.6,1,1.2,1
			c0.3,0,0.6-0.2,0.7-0.4c0.8-1,1.5-2.2,2-3.4c0.5-1.1,0.9-2.3,1.1-3.4l9.3,2.5c-0.4,1.1-0.7,2.2-0.8,3.4c-0.2,1.3-0.3,2.7-0.1,4
			c0,0.3,0.2,0.6,0.4,0.7c0.5,0.4,1.2,0.3,1.5-0.2c0.8-1,1.5-2.2,2-3.4c0.5-1.1,0.9-2.2,1.1-3.4l9.9,2.7c-0.4,1.1-0.7,2.2-0.9,3.4
			c-0.2,1.3-0.2,2.6-0.1,4c0,0.3,0.2,0.6,0.4,0.7c0.5,0.4,1.2,0.3,1.5-0.2c0.8-1,1.5-2.2,2-3.4c0.5-1.1,0.9-2.2,1.1-3.4l9.3,2.5
			c-0.4,1.1-0.7,2.2-0.8,3.3c-0.2,1.3-0.2,2.6-0.1,4c0,0.3,0.2,0.6,0.4,0.7c0.5,0.4,1.2,0.3,1.5-0.2c0.8-1,1.5-2.2,2-3.4
			c0.5-1.1,0.9-2.2,1.1-3.3l6.9,1.9c2.5,0.7,4,3.3,3.3,5.8c-0.1,0.3-0.2,0.6-0.3,0.9c-5.5,11-14.9,13.1-36.8,7.6
			C632.9,440.9,628.7,432.5,629.9,422z"/>
		<path class="st1" d="M515.2,441.3c-4.2-1.3-8.2-2.9-12.2-4.7c0,0-3.1,26.8-20.1,46.6c4.2,1.8,8.3,3.5,12.3,4.9
			C511.1,471.2,515.2,441.3,515.2,441.3L515.2,441.3z"/>
		<path class="st1" d="M429.1,670.9c-3.3,3-6.6,6.3-9.9,9.8c-5,5.2,26.9,14.2,39.1,39.3c3.4-2.8,6.8-5.5,10.1-8l-0.2-0.3
			C456.4,686,429.5,671.1,429.1,670.9z"/>
		<path class="st1" d="M391.1,533.6c-4.3,0.9-8.7,1.8-13.2,2.9c2.8,5.2,12.7,25.7,10,49.9c4.3-1.1,8.6-2.1,12.9-2.9l0,0
			C403.7,559.8,394.3,539.6,391.1,533.6z"/>
		<path class="st3" d="M351.2,692.3l-0.4,0.2c-7.3,3.1-19.2,11.5-14.5,39.1s23,59.9,40.8,62.2C397.3,794.1,371.8,684.5,351.2,692.3z
			"/>
		<path class="st3" d="M301.9,515.9c-7.8,1.1-21.6,6.2-24,34.1s6.9,63.8,23.5,70.6C320.9,626.1,324.3,512.3,301.9,515.9z"/>
		<path class="st3" d="M601.5,431.8L601.5,431.8c-3.6-6-5.5-12.9-5.5-19.8c0-7,1.1-14,3.2-20.7c2.1-6.8,4.7-13.4,7.8-19.9
			c3-6.5,6.4-12.9,10-19c3.6-6.2,7.5-12.1,11.9-17.7c4.2-5.6,9.3-10.5,14.9-14.7c2.8-2,5.8-3.6,9-4.9c3.2-1.3,6.5-2.1,9.9-2.4
			c6.8-0.8,13.9,0.5,20.7,2.6l0,0c0.8,0.2,1.6-0.2,1.8-0.9l0,0c0.3-0.8-0.1-1.6-0.9-1.9c-3.5-1.4-7-2.5-10.7-3.3
			c-3.7-0.8-7.5-1.1-11.3-0.9c-3.9,0.2-7.7,1-11.3,2.2c-3.6,1.3-7.1,3-10.2,5.2c-6.4,4.2-11.7,9.7-16.5,15.4
			c-4.6,5.8-8.8,11.9-12.5,18.3c-1.8,3.2-3.6,6.4-5.3,9.7l-2.5,4.9c-0.8,1.6-1.6,3.3-2.3,5c-3.1,6.7-5.6,13.7-7.6,20.9
			c-2,7.3-2.9,14.8-2.5,22.3c0.3,3.8,1,7.6,2.2,11.2c1.2,3.6,3,7,5.2,10.1c0.5,0.6,1.3,0.8,2,0.5l0.1-0.1
			C601.7,433.3,601.9,432.5,601.5,431.8z"/>
		<path class="st0" d="M460.3,446.3c0-0.8-0.8-1.5-1.6-1.5c0,0,0,0,0,0l0,0c-4.6,0.3-9.3,0.5-13.5-0.2c-1.8-0.2-3.5-0.9-5-2
			c-1.1-1-1.6-2.5-1.5-4c-0.1-1.6,0.5-3.1,1.6-4.1c1.4-1.1,3.1-1.9,4.9-2.1c4.1-0.7,8.7-0.1,13.2,0.6l0,0c0.8,0.1,1.6-0.4,1.8-1.3
			c0.1-0.7-0.2-1.4-0.9-1.6c-2.2-1-4.6-1.8-7-2.4c-2.5-0.6-5.1-0.8-7.7-0.6c-3,0.1-5.8,1.2-8.1,3c-1.3,1-2.3,2.4-2.9,3.9
			c-0.6,1.4-0.9,3-0.9,4.5c-0.1,1.6,0.2,3.1,0.8,4.6c0.6,1.6,1.6,2.9,3,4c1.2,0.9,2.6,1.7,4,2.1c1.3,0.4,2.6,0.7,4,0.8
			c5,0.3,10-0.5,14.7-2.1C459.9,447.7,460.4,447,460.3,446.3z"/>
		<path class="st2" d="M425.8,552.7c6.9-1.2,20.4-2.8,33.5-0.5c0.7,0.1,1.4-0.1,1.9-0.6c0.5-0.5,0.8-1.3,0.6-2
			c-1.1-6.8-3.7-19-8.5-25c-0.3-0.4-0.8-0.7-1.3-0.8c-5.2-1-10.4-1.4-15.7-1.4c-6.8,0-13.5,0.7-20.1,2.1c-0.7,0.1-1.3,0.6-1.6,1.2
			c-0.3,0.6-0.3,1.4,0,2c3.8,7.3,6.7,15.1,8.5,23.2C423.4,552,424.6,552.8,425.8,552.7z M446.5,526.3c0.4-0.1,0.8,0,1.2,0.3
			c1.3,1,2.4,2.2,3.3,3.5c0.9,1.3,1.6,2.7,2.1,4.2c0.5,1.5,0.8,3.1,0.9,4.7c0.1,1.6-0.1,3.3-0.7,4.8c-0.3,0.8-1.2,1.3-2.1,1
			c0,0,0,0,0,0c-0.4-0.1-0.7-0.4-0.9-0.8l-0.1-0.1c-0.6-1.3-1-2.6-1.5-3.8s-0.9-2.5-1.3-3.7s-0.8-2.5-1.2-3.8
			c-0.4-1.3-0.8-2.7-1-4.1v-0.2C445,527.3,445.6,526.5,446.5,526.3C446.5,526.3,446.5,526.3,446.5,526.3L446.5,526.3z M435.8,526.1
			c0.4-0.1,0.8,0,1.2,0.3c1.3,1,2.4,2.1,3.3,3.5c0.9,1.3,1.6,2.7,2.1,4.2c0.5,1.5,0.8,3.1,0.9,4.7c0.1,1.6-0.1,3.3-0.7,4.8
			c-0.3,0.8-1.2,1.3-2.1,1c0,0,0,0,0,0c-0.4-0.2-0.7-0.4-0.9-0.8l-0.1-0.2c-0.6-1.3-1-2.6-1.5-3.8s-0.9-2.5-1.3-3.7
			s-0.8-2.5-1.2-3.8c-0.4-1.3-0.8-2.7-1-4.1V528C434.3,527.1,434.9,526.2,435.8,526.1C435.8,526.1,435.8,526.1,435.8,526.1
			L435.8,526.1z M422.8,529.1c-0.1-0.9,0.5-1.7,1.4-1.8c0,0,0,0,0,0c0.4-0.1,0.8,0,1.2,0.3c1.3,1,2.4,2.2,3.3,3.5
			c0.9,1.3,1.6,2.7,2.1,4.2c0.5,1.5,0.8,3.1,0.9,4.7c0.1,1.6-0.1,3.3-0.7,4.8c-0.3,0.8-1.3,1.3-2.1,1c-0.4-0.1-0.7-0.4-0.9-0.8
			l-0.1-0.2c-0.6-1.3-1-2.6-1.5-3.8s-0.9-2.5-1.3-3.7s-0.9-2.5-1.2-3.8c-0.4-1.3-0.8-2.7-1-4.1L422.8,529.1z"/>
		<path class="st0" d="M425.4,556.7c0.3,0,0.7,0,1-0.1c6.6-1.1,19.6-2.7,32.2-0.5c2,0.3,4-0.3,5.4-1.7c1.4-1.4,2.1-3.5,1.8-5.5
			c-1-6.4-2.8-14.3-5.7-20.7c-0.9-2.2-2.2-4.3-3.6-6.2c-0.9-1.1-2.2-1.9-3.6-2.2c-12.4-2.2-25.1-2-37.4,0.7c-3.4,0.7-5.6,4-4.9,7.4
			c0.1,0.6,0.3,1.1,0.6,1.6l0,0c0.1,0.2,0.3,0.5,0.4,0.8c3.5,6.8,6.1,13.9,7.8,21.4C419.9,554.6,422.4,556.7,425.4,556.7z
			 M414.7,527.7c-0.3-0.6-0.3-1.4,0-2c0.3-0.6,0.9-1.1,1.6-1.2c6.6-1.4,13.4-2.1,20.1-2.1c5.3,0,10.5,0.4,15.7,1.4
			c0.5,0.1,1,0.4,1.3,0.8c4.8,6,7.4,18.2,8.5,25c0.1,0.7-0.1,1.5-0.6,2c-0.5,0.5-1.2,0.7-1.9,0.6c-13.1-2.3-26.7-0.6-33.5,0.5
			c-1.2,0.2-2.3-0.6-2.6-1.8C421.4,542.8,418.6,535,414.7,527.7L414.7,527.7L414.7,527.7z"/>
		<path class="st0" d="M425,537.3c0.4,1.2,0.9,2.5,1.3,3.7s0.9,2.5,1.5,3.8l0.1,0.2c0.4,0.8,1.4,1.2,2.2,0.8
			c0.4-0.2,0.7-0.5,0.8-0.9c0.6-1.5,0.8-3.2,0.7-4.8c-0.1-1.6-0.4-3.2-0.9-4.7c-0.5-1.5-1.2-2.9-2.1-4.2c-0.9-1.4-2-2.5-3.3-3.5
			c-0.3-0.2-0.8-0.3-1.2-0.3c-0.9,0.1-1.5,0.9-1.4,1.8c0,0,0,0,0,0v0.2c0.2,1.4,0.6,2.8,1,4.1C424.2,534.8,424.6,536,425,537.3z"/>
		<path class="st0" d="M434.5,528.1c0.2,1.4,0.6,2.8,1,4.1c0.4,1.3,0.8,2.6,1.2,3.8s0.9,2.5,1.3,3.7s0.9,2.5,1.5,3.8l0.1,0.2
			c0.2,0.4,0.5,0.7,0.9,0.8c0.8,0.3,1.8-0.1,2.1-1c0,0,0,0,0,0c0.6-1.5,0.8-3.2,0.7-4.8c-0.1-1.6-0.4-3.2-0.9-4.7
			c-0.5-1.5-1.2-2.9-2.1-4.2c-0.9-1.4-2-2.5-3.3-3.5c-0.3-0.2-0.8-0.4-1.2-0.3c-0.9,0.1-1.5,0.9-1.4,1.8V528.1z"/>
		<path class="st0" d="M445.2,528.2v0.2c0.2,1.4,0.6,2.8,1,4.1c0.4,1.3,0.8,2.6,1.2,3.8s0.9,2.5,1.3,3.7s0.9,2.5,1.5,3.8l0.1,0.1
			c0.2,0.4,0.5,0.7,0.9,0.8c0.8,0.3,1.8-0.1,2.1-1c0,0,0,0,0,0c0.6-1.5,0.8-3.2,0.7-4.8c-0.1-1.6-0.4-3.2-0.9-4.7
			c-0.5-1.5-1.2-2.9-2.1-4.2c-0.9-1.3-2-2.5-3.3-3.5c-0.7-0.5-1.7-0.4-2.2,0.4C445.2,527.3,445.1,527.7,445.2,528.2L445.2,528.2z"/>
		<path class="st0" d="M754.6,554.9c7.3-2,11.4-10.3,9.1-18.5s-10-13.2-17.4-11.2s-11.4,10.3-9.1,18.5S747.3,557,754.6,554.9z"/>
		<path class="st0" d="M626.3,533.7c-4.7,0-8.5,3.8-8.5,8.5s3.8,8.5,8.5,8.5s8.5-3.8,8.5-8.5c0,0,0,0,0,0
			C634.7,537.4,630.9,533.7,626.3,533.7z M625,545.9c-2.4,0-4.3-1.9-4.3-4.3s1.9-4.3,4.3-4.3c2.4,0,4.3,1.9,4.3,4.3c0,0,0,0,0,0
			C629.3,544,627.4,545.9,625,545.9L625,545.9z"/>
		<circle class="st1" cx="647.7" cy="545" r="4.2"/>
		<path class="st1" d="M641.1,551.9c-2.3,0-4.2,1.9-4.2,4.2s1.9,4.2,4.2,4.2s4.2-1.9,4.2-4.2c0,0,0,0,0,0
			C645.3,553.8,643.4,551.9,641.1,551.9z"/>
		<circle class="st3" cx="625" cy="541.6" r="4.3"/>
		<path class="st0" d="M640.3,512.7c0.7,0.7,1.5,1.3,2.4,1.8c0.9,0.5,1.8,0.9,2.8,1.1c1,0.3,2.1,0.3,3.2,0.1c0.2,0,0.5-0.1,0.7-0.3
			c0.8-0.5,1-1.6,0.5-2.5c0,0,0,0,0,0l-0.1-0.1c-0.5-0.8-1.2-1.5-2-2.1c-0.7-0.6-1.4-1.1-2.2-1.5c-0.8-0.4-1.6-0.8-2.4-1.1
			c-0.9-0.3-1.9-0.5-2.8-0.5h-0.2c-0.2,0-0.5,0-0.7,0.1c-0.9,0.4-1.4,1.4-1,2.3c0,0,0,0,0,0C638.9,511.1,639.6,512,640.3,512.7z"/>
		<path class="st0" d="M635,521c1.4,1.4,3.2,2.4,5.2,2.9c1,0.3,2.1,0.3,3.2,0.1c0.2-0.1,0.5-0.1,0.7-0.3c0.8-0.5,1-1.7,0.5-2.5
			l-0.1-0.1c-0.6-0.8-1.2-1.5-2-2.1c-0.7-0.6-1.4-1.1-2.2-1.5c-0.8-0.4-1.6-0.8-2.4-1.1c-0.9-0.3-1.9-0.5-2.8-0.5h-0.2
			c-0.2,0-0.5,0-0.7,0.1c-0.9,0.4-1.4,1.4-1,2.3c0,0,0,0,0,0C633.6,519.4,634.2,520.3,635,521z"/>
		<path class="st0" d="M638.8,532.8c0.8-0.5,1-1.7,0.5-2.5l-0.1-0.1c-0.6-0.8-1.2-1.5-2-2.1c-0.7-0.6-1.4-1.1-2.2-1.5
			c-0.8-0.4-1.6-0.8-2.4-1.1c-0.9-0.3-1.9-0.5-2.8-0.5h-0.2c-0.2,0-0.5,0-0.7,0.1c-0.9,0.3-1.4,1.4-1,2.3c0,0,0,0,0,0
			c0.4,1,1,1.9,1.8,2.6c0.7,0.7,1.5,1.3,2.4,1.8c0.9,0.5,1.8,0.9,2.8,1.1c1,0.3,2.1,0.3,3.2,0.1C638.3,533,638.5,532.9,638.8,532.8z
			"/>
		<path class="st0" d="M677.7,521c0.3-0.8,0.6-1.6,0.9-2.3l0.1-0.4c0.3-0.9,0.6-1.7,0.9-2.6c0.3-1-0.2-2.1-1.2-2.5
			c-1.3-0.5-2.5-0.9-3.8-1.4l-0.5-0.2c-1.2-0.5-2.4-1-3.6-1.5l-0.6-0.3c-1.1-0.5-2.3-1-3.4-1.5l-0.8-0.3l-3.1-1.4
			c-9.1-4.1-17.8-9-26-14.6c-0.5-0.3-1.1-0.5-1.6-0.3c-0.6,0.1-1,0.5-1.3,1c-0.2,0.4-18.3,35.1-31.8,52c-0.7,0.8-0.6,2.1,0.3,2.8
			c0.8,0.7,21,17.8,45.1,25.9c0.2,0.1,0.4,0.1,0.6,0.1c0.6,0,1.3-0.3,1.6-0.8c0.8-1.2,18.8-27,28.1-51.3L677.7,521z M606.2,545.6
			c11.8-15.3,26-41.6,30-49.1c7.2,4.8,14.7,9,22.5,12.7c-2,4.6-7.4,16.8-10,20.3c-0.3,0.5-0.4,1-0.3,1.6c0.1,0.5,0.5,1,0.9,1.3
			c0.4,0.2,8.4,5,15.5,7.1c-5.4,10.1-11.3,20-17.7,29.5C627.9,562.2,611.2,549.5,606.2,545.6L606.2,545.6z M666.7,528.7
			c-0.5,1-1.7,1.5-2.8,1.2c-1.5-0.5-2.9-1.2-4.3-1.9c-1.1-0.5-1.6-1.9-1-3c0,0,0,0,0-0.1c1.1-2,2.3-4.8,3.2-6.7
			c0.5-1.1,1.8-1.7,2.9-1.2c0,0,0,0,0.1,0c1.2,0.5,2.4,1,3.7,1.6c1.1,0.5,1.7,1.7,1.3,2.9C668.9,523.8,667.8,526.3,666.7,528.7
			L666.7,528.7L666.7,528.7z"/>
		<path class="st0" d="M613.5,672.4L613.5,672.4c-3-2.8-5.9-5.7-8.7-8.8l-0.4-0.4c20.7-9.2,37.1-26,38.9-27.9l2.5,1.8l5.9,4.3
			c2,1.4,4,2.8,6,4.2c0.4,0.3,1,0.2,1.3-0.2c0.1-0.1,0.1-0.2,0.1-0.2c0.2-0.4,0.1-0.9-0.2-1.2l0,0l-1.9-1.6l-3.7-3.1l-5.6-4.6
			c-3.1-2.6-6.3-5.1-9.4-7.6c-0.6-0.6-1.2-1.1-1.8-1.7c-0.8-0.7-2-0.6-2.7,0.2c-3.7,3.8-7.6,7.3-11.6,10.7l-0.2,0.1
			c-0.8,0.7-1.6,1.3-2.5,2c-1.2,1-2.5,1.9-3.7,2.8c-6.6,5-13.7,9.1-21.2,12.5c-1,0.4-1.5,1.6-1.1,2.6c0.1,0.3,0.4,0.6,0.6,0.8
			c0,0,0.4,0.3,1,0.8c2.5,2.7,5,5.3,7.6,7.8s5.3,4.9,8.1,7.1c0.5,0.4,0.9,0.8,1.4,1.1c0.4,0.3,1,0.3,1.4-0.1c0,0,0,0,0,0
			C614,673.4,613.9,672.8,613.5,672.4C613.5,672.4,613.5,672.4,613.5,672.4z"/>
		<path class="st0" d="M724.2,643.5c-0.5,0-1,0.3-1.3,0.8c-0.5,0.7-0.2,1.7,0.5,2.2l0,0c1.8,1.1,3.7,2,5.6,2.9
			c1.9,0.8,3.8,1.7,5.7,2.4l5.6,2.3c1.9,0.8,3.7,1.5,5.5,2.3l0.1,0.1c0.8,0.4,1.7,0,2.1-0.8c0.2-0.5,0.2-1.1-0.1-1.5
			c-1.3-1.9-3-3.5-5-4.8c-1.9-1.2-3.8-2.3-5.9-3.1c-2-0.8-4.1-1.5-6.3-2C728.6,643.7,726.4,643.5,724.2,643.5z"/>
		<path class="st0" d="M736.1,658c-0.8-0.7-1.8-1.2-2.8-1.6c-1-0.4-2-0.6-3-0.8c-1.1-0.1-2.2,0-3.2,0.2c-0.2,0.1-0.5,0.2-0.7,0.4
			c-0.7,0.6-0.8,1.7-0.2,2.5l0.1,0.1c0.7,0.7,1.4,1.4,2.3,1.9c0.8,0.5,1.6,0.9,2.4,1.2c0.8,0.3,1.6,0.6,2.5,0.8
			c0.9,0.2,1.7,0.3,2.6,0.4h0.4c0.2,0,0.4,0,0.6-0.1c0.9-0.3,1.3-1.3,1-2.2c0,0,0,0,0,0C737.8,659.7,737.1,658.7,736.1,658z"/>
		<path class="st0" d="M718.5,695.3c-2.2-1.3-4.4-2.4-6.6-3.4s-4.5-2-6.8-2.9s-4.6-1.7-7-2.5H698c-1.5-0.5-3.1,0.3-3.6,1.8
			c-0.3,0.9-0.8,1.7-1.2,2.5c-0.5,0.9-1,1.8-1.5,2.6c-1.1,1.7-2.3,3.5-3.6,5.2s-2.5,3.5-3.8,5.2l-3.9,5.2l0,0
			c-0.5,0.7-0.3,1.7,0.3,2.2c0.6,0.4,1.3,0.4,1.8,0c1.8-1.4,3.4-2.9,5-4.4s3.2-3.1,4.6-4.8c1.5-1.7,2.9-3.4,4.3-5.3
			c0.8-1.2,1.6-2.4,2.3-3.7l4.3,1.5l6.8,2.4c2.2,0.8,4.5,1.6,6.7,2.5c2.2,0.8,4.3,1.7,6.4,2.8h0.1c0.8,0.4,1.7,0.1,2.1-0.7
			c0.3-0.6,0.2-1.3-0.3-1.8C722.8,698,720.7,696.5,718.5,695.3z"/>
		<path class="st0" d="M719.5,546.1c0.6-0.3,1-1,0.8-1.7c-0.5-2.2-1.2-4.4-2.3-6.4c-1.1-2-2.3-3.9-3.8-5.6c-1.5-1.8-3.1-3.3-5-4.6
			c-1.9-1.4-4-2.4-6.3-2.9c-0.8-0.2-1.7,0.3-1.9,1.2c-0.1,0.5,0,1.1,0.4,1.4l0.1,0.1c1.5,1.5,2.9,2.9,4.2,4.3s2.7,2.9,4,4.4l3.8,4.7
			c1.3,1.6,2.6,3.2,4,4.7l0.1,0.1c0.3,0.3,0.7,0.5,1.1,0.5c0.1,0,0.2,0,0.3,0C719.3,546.2,719.4,546.2,719.5,546.1z"/>
		<ellipse transform="matrix(0.5 -0.866 0.866 0.5 19.7357 757.1555)" class="st0" cx="665.6" cy="361.5" rx="9.4" ry="6.1"/>
		<path class="st0" d="M670.5,380.6c-1.9-0.2-2.5,1.7-2.7,4.2s-0.1,4.5,1.8,4.7s2.5-1.7,2.7-4.2S672.4,380.8,670.5,380.6z"/>
		<path class="st0" d="M683.1,392.4c2-1.4,3.4-2.9,2.3-4.4s-3-0.7-4.9,0.7s-3.4,2.9-2.3,4.5S681.1,393.8,683.1,392.4z"/>
		<ellipse transform="matrix(0.5 -0.866 0.866 0.5 22.492 801.7746)" class="st0" cx="705.6" cy="381.4" rx="9.4" ry="6.1"/>
		<path class="st3" d="M746.7,543.3l0.1,6c0,0.3,0.3,0.6,0.6,0.6c0.1,0,0.3-0.1,0.4-0.1l4.3-3.5c0.2-0.1,0.4-0.2,0.6-0.1l5.3,1.9
			c0.3,0.1,0.7-0.1,0.8-0.4c0-0.1,0-0.3,0-0.4l-1.9-5.6c-0.1-0.2,0-0.4,0.1-0.5l3.3-4.8c0.2-0.3,0.2-0.6-0.1-0.9
			c-0.1-0.1-0.3-0.2-0.4-0.1l-5.6,0.1c-0.2,0-0.4-0.1-0.5-0.3l-3.3-4.8c-0.2-0.3-0.6-0.3-0.8-0.2c-0.1,0.1-0.2,0.2-0.2,0.3l-1.5,5.6
			c-0.1,0.2-0.2,0.4-0.4,0.4l-5.2,1.8c-0.3,0.1-0.5,0.5-0.4,0.8c0,0.1,0.1,0.2,0.2,0.3l4.7,3.4C746.7,543,746.7,543.1,746.7,543.3z"
			/>
		<path class="st0" d="M739.5,433.2c-3.4-1.5-7.2-1.4-10.5,0.4c-6.9,3.6-10.5,11.5-8.7,19.1c0.9,3.6,3.3,6.6,6.6,8.1
			c1.5,0.7,3.1,1,4.7,1c2,0,4-0.5,5.7-1.4c6.9-3.6,10.5-11.5,8.7-19.1C745.2,437.7,742.8,434.8,739.5,433.2z M739.5,449.9
			c-1,2.2-2.7,4-4.8,5.2c-2.8,1.6-6.3,0.7-7.9-2.1c-0.3-0.6-0.6-1.2-0.7-1.9c-1.1-4.8,1.2-9.8,5.5-12.1c1-0.5,2-0.8,3.1-0.8
			c0.8,0,1.5,0.2,2.2,0.5c1.7,0.8,2.9,2.4,3.3,4.2C740.8,445.2,740.6,447.7,739.5,449.9L739.5,449.9z"/>
		<path class="st0" d="M751.4,411.8c-3.3-1.5-7.6,0.6-9.4,4.6s-0.6,8.6,2.7,10.2s7.6-0.6,9.4-4.6S754.8,413.3,751.4,411.8z"/>
		<ellipse transform="matrix(0.5 -0.866 0.866 0.5 84.5651 776.9326)" class="st1" cx="715.1" cy="315.2" rx="8" ry="6.9"/>
		<path class="st0" d="M728.8,330.1L728.8,330.1c4.8,2.9,9.5,5.9,13.9,9.2c1.1,0.9,2.2,1.7,3.3,2.5s2.1,1.8,3.2,2.7
			c2.1,1.8,4.1,3.6,6,5.6c3.9,3.9,7.6,8.1,11,12.5c3.3,4.4,6.5,9.1,9.3,13.8l0,0c0.5,0.7,1.4,0.9,2.1,0.5c0.6-0.4,0.8-1.1,0.6-1.8
			c-1.9-5.5-4.5-10.7-7.7-15.6c-0.8-1.2-1.6-2.5-2.5-3.6s-1.7-2.4-2.7-3.5s-1.9-2.3-2.8-3.3s-2-2.2-3-3.2c-4.1-4.2-8.7-7.8-13.6-11
			c-4.9-3.1-10.2-5.7-15.7-7.6c-0.8-0.3-1.7,0.1-2,0.9C727.9,328.9,728.2,329.7,728.8,330.1L728.8,330.1z"/>
		<path class="st0" d="M796.1,450.2l-0.1,0.2c-1.1,3.4-2.4,6.9-3.7,10.2c-0.7,1.7-1.4,3.4-2.1,5c-0.4,0.8-0.8,1.6-1.2,2.5
			s-0.8,1.6-1.2,2.5c-1.6,3.2-3.4,6.4-5.3,9.5c-1.9,3.1-4,6-6.3,8.8l0,0c-0.4,0.4-0.4,1,0,1.4s1,0.4,1.4,0l0,0
			c2.9-2.5,5.4-5.3,7.7-8.3c0.6-0.7,1.1-1.5,1.6-2.3s1.1-1.6,1.5-2.4l1.5-2.4l1.3-2.5c0.9-1.7,1.7-3.4,2.4-5.1s1.5-3.5,2.1-5.2
			l0.9-2.7c0.3-0.9,0.6-1.8,0.8-2.7c0.4-1.4,0.7-2.8,1-4.2c1.5,0.3,3,0.5,4.5,0.8c0.5,0.2,1.1-0.1,1.3-0.7s-0.1-1.1-0.7-1.3
			c-2-0.8-4-1.5-6-2C797,449.1,796.3,449.5,796.1,450.2z"/>
		<path class="st0" d="M789.8,428.7c-0.9,0.6-1.7,1.3-2.4,2c-0.2,0.2-0.3,0.5-0.3,0.8c0.1,0.6,0.6,1,1.2,1c1-0.1,2.1-0.3,3.1-0.7
			c1-0.3,1.9-0.7,2.8-1.2c0.9-0.5,1.8-1,2.6-1.5c0.9-0.6,1.7-1.2,2.4-2c0.4-0.5,0.3-1.2-0.1-1.6c-0.2-0.2-0.5-0.3-0.8-0.3
			c-1,0.1-2.1,0.3-3.1,0.7C793.3,426.7,791.5,427.6,789.8,428.7L789.8,428.7z"/>
		<path class="st0" d="M784.6,426.3c1-0.2,2-0.5,3-1c1.8-0.9,3.5-2,5-3.4c0.8-0.7,1.5-1.5,2.1-2.3c0.3-0.5,0.2-1.2-0.3-1.5
			c-0.3-0.2-0.6-0.2-0.9-0.2c-1,0.2-2,0.6-3,1c-1.8,0.9-3.5,2-5,3.4c-0.8,0.7-1.5,1.5-2.1,2.3c-0.2,0.2-0.2,0.5-0.2,0.8
			C783.4,426,783.9,426.4,784.6,426.3C784.5,426.3,784.6,426.3,784.6,426.3z"/>
		<path class="st0" d="M337.5,549.3c-1.7,0.4-3.4,1-5.1,1.7l-0.2,0.8c-0.5,1.8-1,3.7-1.5,5.5l-1.4,5.4c-0.5,1.8-0.9,3.5-1.4,5.3v0.1
			c-0.2,0.8,0.2,1.7,1.1,1.9c0.5,0.1,1,0,1.4-0.3c1.6-1.4,3-3.2,4-5.2c0.9-1.9,1.7-3.8,2.2-5.9c0.5-2,0.9-4,1-6.1
			C337.6,551.6,337.6,550.5,337.5,549.3L337.5,549.3z"/>
		<path class="st0" d="M523,592.7c-0.1-0.5-0.2-0.9-0.3-1.3C522.7,591.8,522.8,592.3,523,592.7z"/>
		<path class="st0" d="M516.3,589.4c1.2,0.9,6.4,2,6.4,2c-0.1-0.5-0.2-1-0.3-1.5l-1.3-5.4l-1.3-5.4c-0.5-1.8-0.9-3.6-1.5-5.5v-0.1
			c-0.2-0.5-0.6-0.9-1.1-1c-0.8-0.3-1.7,0.2-2,1c0,0,0,0,0,0c-0.6,2-0.8,4.1-0.7,6.2c0,2.1,0.3,4.1,0.8,6.2
			C515.5,587.1,516,589.2,516.3,589.4z"/>
		<path class="st0" d="M462.9,672c1.2,1.6,3.1,2.6,5.1,2.6c1.2,0,2.5-0.4,3.5-1.1c5.5-3.8,16.7-10.7,29-14c1.9-0.5,3.5-1.9,4.2-3.8
			c0.7-1.9,0.5-4-0.6-5.7c-3.7-5.6-8-10.9-12.9-15.6c-2-1.9-4.3-3.6-6.8-4.9c-1.3-0.7-2.8-0.8-4.2-0.5c-12.2,3.2-23.6,8.7-33.7,16.3
			c-2.8,2-3.4,5.9-1.3,8.7c0.3,0.5,0.7,0.9,1.2,1.2l0,0l1.1,0.9C453.2,660.8,458.4,666.1,462.9,672z M447.9,650.4
			c0-0.7,0.3-1.4,0.9-1.8c9.6-7.2,20.6-12.6,32.2-15.6c0.5-0.1,1-0.1,1.5,0.2c6.9,3.5,14.3,13.5,18.2,19.1c0.4,0.6,0.5,1.4,0.2,2.1
			c-0.2,0.7-0.8,1.2-1.5,1.3c-12.9,3.5-24.5,10.6-30.2,14.5c-1,0.7-2.4,0.4-3.1-0.6c-5-6.6-10.9-12.4-17.4-17.5
			C448.2,651.7,447.8,651,447.9,650.4L447.9,650.4L447.9,650.4z"/>
		<path class="st0" d="M456.6,650l0.1,0.2c0.8,1.2,1.7,2.3,2.6,3.3c0.9,1,1.8,2,2.7,3s1.8,1.9,2.8,2.8s1.9,1.9,3,2.8l0.1,0.1
			c0.7,0.6,1.7,0.5,2.3-0.2c0.3-0.3,0.4-0.7,0.4-1.1c-0.1-1.6-0.6-3.2-1.4-4.7c-0.7-1.4-1.7-2.7-2.8-3.9c-1.1-1.2-2.3-2.2-3.7-3
			c-1.4-0.9-2.9-1.5-4.5-1.8c-0.4-0.1-0.8,0-1.2,0.2C456.4,648.3,456.2,649.3,456.6,650C456.6,650,456.6,650,456.6,650z"/>
		<path class="st0" d="M466.8,644.2c0.8,1.2,1.7,2.3,2.6,3.3c0.9,1,1.8,2,2.7,3s1.8,1.9,2.8,2.8s1.9,1.9,3,2.8l0.1,0.1
			c0.3,0.3,0.7,0.4,1.1,0.4c0.9-0.1,1.6-0.8,1.5-1.7c-0.1-1.6-0.6-3.2-1.4-4.7c-0.7-1.4-1.7-2.7-2.8-3.9c-1.1-1.2-2.3-2.2-3.7-3
			c-1.4-0.9-2.9-1.5-4.5-1.8c-0.9-0.2-1.7,0.4-1.9,1.3c-0.1,0.4,0,0.8,0.2,1.2L466.8,644.2z"/>
		<path class="st0" d="M476.7,640c0.8,1.2,1.7,2.3,2.6,3.3c0.9,1,1.8,2,2.7,3s1.8,1.9,2.8,2.8s1.8,1.9,3,2.8l0.1,0.1
			c0.7,0.6,1.7,0.5,2.3-0.2c0.3-0.3,0.4-0.7,0.4-1.1c-0.1-1.6-0.6-3.2-1.4-4.7c-0.7-1.4-1.7-2.7-2.8-3.9c-1.1-1.2-2.3-2.2-3.7-3
			c-1.4-0.9-2.9-1.5-4.5-1.8c-0.4-0.1-0.8,0-1.2,0.2c-0.7,0.5-1,1.5-0.5,2.2c0,0,0,0,0,0L476.7,640z"/>
		<path class="st0" d="M382.2,778.8c0.1-0.9-0.5-1.8-1.4-1.9c-1.5-0.2-2.9-0.2-4.4,0c-1.4,0.2-2.8,0.5-4.1,0.8
			c-1.4,0.4-2.7,0.9-4,1.5c-1.3,0.6-2.6,1.4-3.7,2.3c-0.3,0.3-0.5,0.7-0.6,1.1c-0.1,0.9,0.5,1.7,1.4,1.9c1.5,0.2,2.9,0.2,4.4,0
			c1.4-0.2,2.8-0.5,4.1-0.8c1.4-0.4,2.7-0.9,4-1.5c1.3-0.6,2.6-1.4,3.7-2.3C381.9,779.6,382.1,779.2,382.2,778.8z"/>
		<path class="st0" d="M342.2,708.7c1.5,0.2,2.9,0.2,4.4,0c1.4-0.2,2.8-0.5,4.1-0.8c1.4-0.4,2.7-0.9,4-1.5c1.3-0.6,2.6-1.4,3.7-2.3
			c0.3-0.3,0.5-0.6,0.6-1.1c0.1-0.9-0.5-1.7-1.4-1.9c0,0,0,0,0,0c-1.5-0.2-2.9-0.2-4.4,0c-2.8,0.4-5.5,1.1-8.1,2.3
			c-1.3,0.6-2.6,1.4-3.7,2.3c-0.3,0.3-0.5,0.6-0.6,1.1C340.6,707.7,341.3,708.5,342.2,708.7z"/>
		<path class="st0" d="M354.3,720.5c2.2-0.6,4.3-1.3,6.4-2.2c2.1-0.8,4.2-1.8,6.1-3c0.7-0.5,1-1.4,0.5-2.2c-0.3-0.5-0.8-0.8-1.4-0.8
			c-2.3,0.1-4.5,0.3-6.8,0.7c-2.2,0.4-4.4,0.9-6.5,1.5c-2.1,0.6-4.3,1.3-6.4,2.2c-2.1,0.8-4.2,1.8-6.1,3c-0.7,0.5-1,1.4-0.5,2.2
			c0.3,0.5,0.8,0.8,1.4,0.8c2.3-0.1,4.5-0.3,6.8-0.7C350,721.6,352.1,721.1,354.3,720.5z"/>
		<path class="st0" d="M357.5,733.3c2.4-0.7,4.8-1.5,7.1-2.3c2.4-0.9,4.7-1.9,6.9-3.2c0.8-0.4,1-1.4,0.6-2.1
			c-0.3-0.5-0.8-0.8-1.4-0.8c-2.5,0.1-5,0.4-7.5,0.9c-2.5,0.5-4.9,1.1-7.3,1.8s-4.8,1.5-7.1,2.4c-2.4,0.9-4.7,1.9-6.9,3.2
			c-0.8,0.4-1,1.4-0.6,2.1c0.3,0.5,0.8,0.8,1.4,0.8c2.5-0.1,5-0.4,7.5-0.9C352.6,734.6,355.1,734,357.5,733.3z"/>
		<path class="st0" d="M361.1,746c2.4-0.7,4.8-1.5,7.1-2.4c2.4-0.9,4.6-1.9,6.8-3.1c0.8-0.4,1-1.4,0.6-2.2c-0.3-0.5-0.8-0.8-1.4-0.8
			c-2.5,0.1-5,0.4-7.5,0.9c-2.5,0.5-4.9,1.1-7.3,1.8s-4.8,1.5-7.1,2.4c-2.4,0.9-4.7,1.9-6.9,3.2c-0.8,0.4-1,1.4-0.6,2.1
			c0.3,0.5,0.8,0.8,1.4,0.8c2.5-0.1,5-0.4,7.5-0.9C356.3,747.3,358.7,746.7,361.1,746z"/>
		<path class="st0" d="M365.7,758.4c2.2-0.6,4.4-1.4,6.6-2.2c2.2-0.8,4.3-1.8,6.4-3c0.7-0.5,1-1.4,0.5-2.2c-0.3-0.5-0.8-0.8-1.4-0.8
			c-2.4,0.1-4.7,0.3-7,0.8c-2.3,0.4-4.6,1-6.8,1.6c-2.2,0.6-4.4,1.4-6.6,2.2c-2.2,0.8-4.3,1.8-6.4,3c-0.8,0.4-1,1.4-0.6,2.2
			c0.3,0.5,0.8,0.8,1.4,0.8c2.4-0.1,4.7-0.4,7-0.8C361.2,759.6,363.4,759.1,365.7,758.4z"/>
		<path class="st0" d="M369.8,771c1.8-0.5,3.6-1.1,5.4-1.9c1.8-0.7,3.5-1.6,5.2-2.7c0.7-0.5,0.9-1.5,0.4-2.2
			c-0.3-0.4-0.8-0.7-1.3-0.7c-2,0-3.9,0.1-5.8,0.5c-3.8,0.6-7.5,1.7-11,3.2c-1.8,0.7-3.6,1.6-5.2,2.7c-0.7,0.5-0.9,1.5-0.4,2.2
			c0.3,0.4,0.8,0.7,1.3,0.7c2,0,3.9-0.1,5.8-0.5C366.1,771.9,367.9,771.5,369.8,771z"/>
		<path class="st0" d="M398,717.8c-0.2-2.1-0.5-4.3-1-6.4c-0.2-0.8-0.4-1.7-0.7-2.5c-1.8,2.4-3.2,5-4.4,7.7c0,0.5,0,1,0.1,1.5l0.4,6
			c0.1,2,0.3,3.9,0.5,5.9v0.1c0,0.9,0.8,1.5,1.7,1.5c0.6,0,1.1-0.4,1.3-0.9c1-2,1.7-4.2,2-6.4C398.1,722.2,398.1,720,398,717.8z"/>
		<path class="st0" d="M569.1,474.5c-0.7-0.4-1.7-0.2-2.1,0.5v0c-2.7,4.3-5.3,8.5-7.9,12.9c-1.3,2.2-2.6,4.4-3.8,6.7l-0.3,0.5
			l-0.2,0.3c5.5-0.5,7.4-1.3,7.4-1.3c0.7-1,1.3-2.1,2-3.1c1.4-2.3,2.6-4.7,3.6-7.1c1.1-2.5,1.8-5.2,2.1-7.9
			C570,475.4,569.6,474.8,569.1,474.5z"/>
		<path class="st0" d="M308.3,607.5c0.8-0.4,1.2-1.4,0.8-2.2c-0.2-0.3-0.4-0.6-0.8-0.8c-1.3-0.6-2.8-1-4.2-1.2
			c-1.4-0.2-2.8-0.3-4.2-0.3c-1.4,0-2.8,0.1-4.2,0.3c-1.4,0.2-2.9,0.6-4.2,1.2c-0.4,0.2-0.7,0.5-0.9,0.9c-0.4,0.8,0,1.8,0.9,2.2
			c0,0,0,0,0,0c1.3,0.6,2.8,1,4.2,1.2c2.8,0.4,5.6,0.4,8.4,0C305.5,608.5,306.9,608.1,308.3,607.5z"/>
		<path class="st0" d="M289.9,528.3c1.3,0.6,2.8,1,4.2,1.2c1.4,0.2,2.8,0.3,4.2,0.3c1.4,0,2.8-0.1,4.2-0.3c1.4-0.2,2.9-0.6,4.2-1.2
			c0.8-0.4,1.2-1.4,0.8-2.2c-0.2-0.3-0.4-0.6-0.8-0.8c-1.3-0.6-2.8-1-4.2-1.2c-2.8-0.4-5.6-0.4-8.4,0c-1.4,0.2-2.9,0.6-4.2,1.2
			c-0.8,0.4-1.2,1.4-0.8,2.2C289.3,527.8,289.6,528.1,289.9,528.3L289.9,528.3z"/>
		<path class="st0" d="M284.9,541.5c2.2,0.6,4.5,1,6.7,1.2c2.2,0.2,4.5,0.3,6.7,0.3s4.5-0.1,6.7-0.3c2.3-0.2,4.5-0.6,6.7-1.2
			c0.5-0.2,1-0.6,1.1-1.1c0.2-0.8-0.3-1.7-1.1-1.9h0c-2.2-0.6-4.5-1-6.7-1.2c-2.2-0.2-4.5-0.3-6.7-0.3s-4.5,0.1-6.7,0.3
			c-2.3,0.2-4.5,0.6-6.7,1.2c-0.8,0.2-1.3,1.1-1.1,1.9C284,540.9,284.4,541.3,284.9,541.5L284.9,541.5z"/>
		<path class="st0" d="M282.9,554.7c2.5,0.6,5,1,7.5,1.2c2.5,0.2,5,0.3,7.5,0.3c2.5,0,5-0.1,7.5-0.3c2.5-0.2,5-0.6,7.5-1.2
			c0.8-0.3,1.3-1.1,1-2c-0.2-0.5-0.5-0.9-1-1c-2.5-0.6-5-1-7.5-1.2c-2.5-0.2-5-0.3-7.5-0.3c-2.5,0-5,0.1-7.5,0.3
			c-2.5,0.2-5,0.6-7.5,1.2c-0.8,0.3-1.3,1.1-1,2C282,554.1,282.4,554.5,282.9,554.7L282.9,554.7z"/>
		<path class="st0" d="M297.9,569.4c2.5,0,5-0.1,7.5-0.3c2.5-0.2,5-0.6,7.5-1.2c0.8-0.3,1.3-1.1,1-2c-0.2-0.5-0.5-0.9-1-1
			c-2.5-0.6-5-1-7.5-1.2c-2.5-0.2-5-0.3-7.5-0.3s-5,0.1-7.5,0.3c-2.5,0.2-5,0.6-7.5,1.2c-0.6,0.1-1,0.6-1.1,1.2
			c-0.2,0.8,0.3,1.7,1.1,1.9h0c2.5,0.6,5,1,7.5,1.2C292.9,569.3,295.4,569.4,297.9,569.4z"/>
		<path class="st0" d="M298.9,582.6c2.3,0,4.6-0.1,7-0.3c2.4-0.2,4.7-0.6,7-1.2c0.8-0.2,1.3-1.1,1.1-1.9c-0.1-0.5-0.6-1-1.1-1.1
			c-2.3-0.6-4.6-1-7-1.2c-2.3-0.2-4.6-0.3-7-0.3s-4.6,0.1-7,0.3c-2.4,0.2-4.7,0.6-7,1.2c-0.5,0.2-1,0.6-1.1,1.1
			c-0.2,0.8,0.3,1.7,1.1,1.9c0,0,0,0,0,0c2.3,0.6,4.6,1,7,1.2C294.2,582.5,296.5,582.6,298.9,582.6z"/>
		<path class="st0" d="M299.4,595.8c1.9,0,3.8-0.1,5.7-0.3c1.9-0.2,3.9-0.6,5.7-1.2c0.5-0.2,0.8-0.5,1-1c0.3-0.8-0.2-1.7-1-2
			c-1.9-0.6-3.8-1-5.7-1.2c-1.9-0.2-3.8-0.3-5.7-0.3c-1.9,0-3.8,0.1-5.7,0.3c-1.9,0.2-3.9,0.6-5.7,1.2c-0.8,0.3-1.3,1.2-0.9,2.1
			c0.2,0.4,0.5,0.8,0.9,0.9c1.9,0.6,3.8,1,5.7,1.2C295.5,595.7,297.4,595.8,299.4,595.8z"/>
	</g>
</g>
</svg>
